<svg xmlns="http://www.w3.org/2000/svg" xmlns:xlink="http://www.w3.org/1999/xlink" width="700" zoomAndPan="magnify" viewBox="0 0 525 525.000007" height="700" preserveAspectRatio="xMidYMid meet" version="1.0"><defs><filter x="0%" y="0%" width="100%" height="100%" id="a0c4426d9e"><feColorMatrix values="0 0 0 0 1 0 0 0 0 1 0 0 0 0 1 0 0 0 1 0" color-interpolation-filters="sRGB"/></filter><g/><clipPath id="918f831045"><path d="M 0.5 0 L 524.5 0 L 524.5 524 L 0.5 524 Z M 0.5 0 " clip-rule="nonzero"/></clipPath><clipPath id="dc8a912219"><path d="M 0.5 0 L 524.5 0 L 524.5 524 L 0.5 524 Z M 0.5 0 " clip-rule="nonzero"/></clipPath><clipPath id="aa6846868c"><path d="M 0.5 0 L 524.5 0 L 524.5 524 L 0.5 524 Z M 0.5 0 " clip-rule="nonzero"/></clipPath><clipPath id="c14de950c8"><path d="M 0.5 0 L 524.5 0 L 524.5 524 L 0.5 524 Z M 0.5 0 " clip-rule="nonzero"/></clipPath><linearGradient x1="-29.331755" gradientTransform="matrix(0.915397, 0, 0, 0.915697, 30.186969, -32.853612)" y1="611.221725" x2="543.006141" gradientUnits="userSpaceOnUse" y2="38.884887" id="384159de20"><stop stop-opacity="1" stop-color="rgb(27.449036%, 7.058716%, 28.239441%)" offset="0"/><stop stop-opacity="1" stop-color="rgb(27.449036%, 7.058716%, 28.239441%)" offset="0.125"/><stop stop-opacity="1" stop-color="rgb(27.449036%, 7.058716%, 28.239441%)" offset="0.15625"/><stop stop-opacity="1" stop-color="rgb(27.449036%, 7.058716%, 28.239441%)" offset="0.171875"/><stop stop-opacity="1" stop-color="rgb(27.619934%, 7.122803%, 28.237915%)" offset="0.179687"/><stop stop-opacity="1" stop-color="rgb(28.439331%, 7.429504%, 28.22876%)" offset="0.183594"/><stop stop-opacity="1" stop-color="rgb(29.08783%, 7.672119%, 28.222656%)" offset="0.1875"/><stop stop-opacity="1" stop-color="rgb(29.734802%, 7.913208%, 28.215027%)" offset="0.191406"/><stop stop-opacity="1" stop-color="rgb(30.383301%, 8.155823%, 28.208923%)" offset="0.195312"/><stop stop-opacity="1" stop-color="rgb(31.030273%, 8.396912%, 28.201294%)" offset="0.199219"/><stop stop-opacity="1" stop-color="rgb(31.678772%, 8.639526%, 28.19519%)" offset="0.203125"/><stop stop-opacity="1" stop-color="rgb(32.325745%, 8.882141%, 28.189087%)" offset="0.207031"/><stop stop-opacity="1" stop-color="rgb(32.974243%, 9.124756%, 28.182983%)" offset="0.210937"/><stop stop-opacity="1" stop-color="rgb(33.621216%, 9.365845%, 28.175354%)" offset="0.214844"/><stop stop-opacity="1" stop-color="rgb(34.269714%, 9.608459%, 28.16925%)" offset="0.21875"/><stop stop-opacity="1" stop-color="rgb(34.916687%, 9.849548%, 28.161621%)" offset="0.222656"/><stop stop-opacity="1" stop-color="rgb(35.565186%, 10.092163%, 28.155518%)" offset="0.226562"/><stop stop-opacity="1" stop-color="rgb(36.212158%, 10.334778%, 28.147888%)" offset="0.230469"/><stop stop-opacity="1" stop-color="rgb(36.860657%, 10.577393%, 28.141785%)" offset="0.234375"/><stop stop-opacity="1" stop-color="rgb(37.507629%, 10.818481%, 28.135681%)" offset="0.238281"/><stop stop-opacity="1" stop-color="rgb(38.156128%, 11.061096%, 28.129578%)" offset="0.242187"/><stop stop-opacity="1" stop-color="rgb(38.803101%, 11.303711%, 28.121948%)" offset="0.246094"/><stop stop-opacity="1" stop-color="rgb(39.451599%, 11.546326%, 28.115845%)" offset="0.25"/><stop stop-opacity="1" stop-color="rgb(40.100098%, 11.787415%, 28.108215%)" offset="0.253906"/><stop stop-opacity="1" stop-color="rgb(40.748596%, 12.030029%, 28.102112%)" offset="0.257812"/><stop stop-opacity="1" stop-color="rgb(41.395569%, 12.271118%, 28.094482%)" offset="0.261719"/><stop stop-opacity="1" stop-color="rgb(42.044067%, 12.513733%, 28.088379%)" offset="0.265625"/><stop stop-opacity="1" stop-color="rgb(42.69104%, 12.756348%, 28.082275%)" offset="0.269531"/><stop stop-opacity="1" stop-color="rgb(43.339539%, 12.998962%, 28.076172%)" offset="0.273437"/><stop stop-opacity="1" stop-color="rgb(43.986511%, 13.240051%, 28.068542%)" offset="0.277344"/><stop stop-opacity="1" stop-color="rgb(44.63501%, 13.482666%, 28.062439%)" offset="0.28125"/><stop stop-opacity="1" stop-color="rgb(45.281982%, 13.723755%, 28.05481%)" offset="0.285156"/><stop stop-opacity="1" stop-color="rgb(45.930481%, 13.96637%, 28.048706%)" offset="0.289062"/><stop stop-opacity="1" stop-color="rgb(46.577454%, 14.208984%, 28.041077%)" offset="0.292969"/><stop stop-opacity="1" stop-color="rgb(47.225952%, 14.451599%, 28.034973%)" offset="0.296875"/><stop stop-opacity="1" stop-color="rgb(47.872925%, 14.692688%, 28.02887%)" offset="0.300781"/><stop stop-opacity="1" stop-color="rgb(48.521423%, 14.935303%, 28.022766%)" offset="0.304687"/><stop stop-opacity="1" stop-color="rgb(49.168396%, 15.177917%, 28.015137%)" offset="0.308594"/><stop stop-opacity="1" stop-color="rgb(49.816895%, 15.420532%, 28.009033%)" offset="0.3125"/><stop stop-opacity="1" stop-color="rgb(50.463867%, 15.661621%, 28.001404%)" offset="0.316406"/><stop stop-opacity="1" stop-color="rgb(51.112366%, 15.904236%, 27.9953%)" offset="0.320312"/><stop stop-opacity="1" stop-color="rgb(51.760864%, 16.145325%, 27.987671%)" offset="0.324219"/><stop stop-opacity="1" stop-color="rgb(52.409363%, 16.387939%, 27.981567%)" offset="0.328125"/><stop stop-opacity="1" stop-color="rgb(53.056335%, 16.630554%, 27.975464%)" offset="0.332031"/><stop stop-opacity="1" stop-color="rgb(53.704834%, 16.873169%, 27.96936%)" offset="0.335937"/><stop stop-opacity="1" stop-color="rgb(54.351807%, 17.114258%, 27.961731%)" offset="0.339844"/><stop stop-opacity="1" stop-color="rgb(55.000305%, 17.356873%, 27.955627%)" offset="0.34375"/><stop stop-opacity="1" stop-color="rgb(55.647278%, 17.597961%, 27.947998%)" offset="0.347656"/><stop stop-opacity="1" stop-color="rgb(56.295776%, 17.840576%, 27.941895%)" offset="0.351562"/><stop stop-opacity="1" stop-color="rgb(56.942749%, 18.083191%, 27.934265%)" offset="0.355469"/><stop stop-opacity="1" stop-color="rgb(57.591248%, 18.325806%, 27.928162%)" offset="0.359375"/><stop stop-opacity="1" stop-color="rgb(58.23822%, 18.566895%, 27.922058%)" offset="0.363281"/><stop stop-opacity="1" stop-color="rgb(58.886719%, 18.809509%, 27.915955%)" offset="0.367187"/><stop stop-opacity="1" stop-color="rgb(59.533691%, 19.052124%, 27.908325%)" offset="0.371094"/><stop stop-opacity="1" stop-color="rgb(60.18219%, 19.294739%, 27.902222%)" offset="0.375"/><stop stop-opacity="1" stop-color="rgb(60.829163%, 19.535828%, 27.894592%)" offset="0.378906"/><stop stop-opacity="1" stop-color="rgb(61.477661%, 19.778442%, 27.888489%)" offset="0.382812"/><stop stop-opacity="1" stop-color="rgb(62.124634%, 20.019531%, 27.880859%)" offset="0.386719"/><stop stop-opacity="1" stop-color="rgb(62.773132%, 20.262146%, 27.874756%)" offset="0.390625"/><stop stop-opacity="1" stop-color="rgb(63.420105%, 20.504761%, 27.868652%)" offset="0.394531"/><stop stop-opacity="1" stop-color="rgb(64.068604%, 20.747375%, 27.862549%)" offset="0.398437"/><stop stop-opacity="1" stop-color="rgb(64.717102%, 20.988464%, 27.854919%)" offset="0.402344"/><stop stop-opacity="1" stop-color="rgb(65.365601%, 21.231079%, 27.848816%)" offset="0.40625"/><stop stop-opacity="1" stop-color="rgb(65.997314%, 21.661377%, 27.902222%)" offset="0.410156"/><stop stop-opacity="1" stop-color="rgb(66.630554%, 22.093201%, 27.957153%)" offset="0.414062"/><stop stop-opacity="1" stop-color="rgb(67.227173%, 22.9599%, 28.153992%)" offset="0.417969"/><stop stop-opacity="1" stop-color="rgb(67.823792%, 23.826599%, 28.35083%)" offset="0.421875"/><stop stop-opacity="1" stop-color="rgb(68.42041%, 24.693298%, 28.546143%)" offset="0.425781"/><stop stop-opacity="1" stop-color="rgb(69.018555%, 25.561523%, 28.742981%)" offset="0.429687"/><stop stop-opacity="1" stop-color="rgb(69.615173%, 26.428223%, 28.938293%)" offset="0.433594"/><stop stop-opacity="1" stop-color="rgb(70.213318%, 27.296448%, 29.135132%)" offset="0.4375"/><stop stop-opacity="1" stop-color="rgb(70.809937%, 28.163147%, 29.33197%)" offset="0.441406"/><stop stop-opacity="1" stop-color="rgb(71.408081%, 29.029846%, 29.528809%)" offset="0.445312"/><stop stop-opacity="1" stop-color="rgb(72.0047%, 29.896545%, 29.724121%)" offset="0.449219"/><stop stop-opacity="1" stop-color="rgb(72.602844%, 30.764771%, 29.920959%)" offset="0.453125"/><stop stop-opacity="1" stop-color="rgb(73.199463%, 31.63147%, 30.116272%)" offset="0.457031"/><stop stop-opacity="1" stop-color="rgb(73.796082%, 32.498169%, 30.31311%)" offset="0.460937"/><stop stop-opacity="1" stop-color="rgb(74.3927%, 33.364868%, 30.508423%)" offset="0.464844"/><stop stop-opacity="1" stop-color="rgb(74.990845%, 34.233093%, 30.705261%)" offset="0.46875"/><stop stop-opacity="1" stop-color="rgb(75.587463%, 35.099792%, 30.9021%)" offset="0.472656"/><stop stop-opacity="1" stop-color="rgb(76.185608%, 35.966492%, 31.098938%)" offset="0.476562"/><stop stop-opacity="1" stop-color="rgb(76.782227%, 36.833191%, 31.29425%)" offset="0.480469"/><stop stop-opacity="1" stop-color="rgb(77.380371%, 37.701416%, 31.491089%)" offset="0.484375"/><stop stop-opacity="1" stop-color="rgb(77.97699%, 38.568115%, 31.686401%)" offset="0.488281"/><stop stop-opacity="1" stop-color="rgb(78.573608%, 39.43634%, 31.88324%)" offset="0.492187"/><stop stop-opacity="1" stop-color="rgb(79.170227%, 40.30304%, 32.080078%)" offset="0.496094"/><stop stop-opacity="1" stop-color="rgb(79.768372%, 41.169739%, 32.276917%)" offset="0.5"/><stop stop-opacity="1" stop-color="rgb(80.36499%, 42.036438%, 32.472229%)" offset="0.503906"/><stop stop-opacity="1" stop-color="rgb(80.963135%, 42.904663%, 32.669067%)" offset="0.507812"/><stop stop-opacity="1" stop-color="rgb(81.559753%, 43.771362%, 32.86438%)" offset="0.511719"/><stop stop-opacity="1" stop-color="rgb(82.157898%, 44.638062%, 33.061218%)" offset="0.515625"/><stop stop-opacity="1" stop-color="rgb(82.754517%, 45.504761%, 33.256531%)" offset="0.519531"/><stop stop-opacity="1" stop-color="rgb(83.351135%, 46.372986%, 33.453369%)" offset="0.523438"/><stop stop-opacity="1" stop-color="rgb(83.947754%, 47.239685%, 33.650208%)" offset="0.527344"/><stop stop-opacity="1" stop-color="rgb(84.545898%, 48.106384%, 33.847046%)" offset="0.53125"/><stop stop-opacity="1" stop-color="rgb(85.142517%, 48.973083%, 34.042358%)" offset="0.535156"/><stop stop-opacity="1" stop-color="rgb(85.740662%, 49.841309%, 34.239197%)" offset="0.539062"/><stop stop-opacity="1" stop-color="rgb(86.33728%, 50.708008%, 34.434509%)" offset="0.542969"/><stop stop-opacity="1" stop-color="rgb(86.935425%, 51.576233%, 34.631348%)" offset="0.546875"/><stop stop-opacity="1" stop-color="rgb(87.532043%, 52.442932%, 34.82666%)" offset="0.550781"/><stop stop-opacity="1" stop-color="rgb(88.130188%, 53.309631%, 35.023499%)" offset="0.554688"/><stop stop-opacity="1" stop-color="rgb(88.726807%, 54.176331%, 35.220337%)" offset="0.558594"/><stop stop-opacity="1" stop-color="rgb(89.323425%, 55.044556%, 35.417175%)" offset="0.5625"/><stop stop-opacity="1" stop-color="rgb(89.920044%, 55.911255%, 35.612488%)" offset="0.566406"/><stop stop-opacity="1" stop-color="rgb(90.518188%, 56.777954%, 35.809326%)" offset="0.570312"/><stop stop-opacity="1" stop-color="rgb(91.114807%, 57.644653%, 36.004639%)" offset="0.574219"/><stop stop-opacity="1" stop-color="rgb(91.712952%, 58.512878%, 36.201477%)" offset="0.578125"/><stop stop-opacity="1" stop-color="rgb(92.30957%, 59.379578%, 36.398315%)" offset="0.582031"/><stop stop-opacity="1" stop-color="rgb(92.907715%, 60.246277%, 36.595154%)" offset="0.585937"/><stop stop-opacity="1" stop-color="rgb(93.504333%, 61.112976%, 36.790466%)" offset="0.589844"/><stop stop-opacity="1" stop-color="rgb(94.100952%, 61.981201%, 36.987305%)" offset="0.59375"/><stop stop-opacity="1" stop-color="rgb(94.528198%, 62.675476%, 37.307739%)" offset="0.597656"/><stop stop-opacity="1" stop-color="rgb(94.955444%, 63.369751%, 37.628174%)" offset="0.601562"/><stop stop-opacity="1" stop-color="rgb(95.040894%, 63.716125%, 38.197327%)" offset="0.605469"/><stop stop-opacity="1" stop-color="rgb(95.126343%, 64.0625%, 38.766479%)" offset="0.609375"/><stop stop-opacity="1" stop-color="rgb(95.210266%, 64.408875%, 39.335632%)" offset="0.613281"/><stop stop-opacity="1" stop-color="rgb(95.295715%, 64.756775%, 39.904785%)" offset="0.617188"/><stop stop-opacity="1" stop-color="rgb(95.381165%, 65.103149%, 40.473938%)" offset="0.621094"/><stop stop-opacity="1" stop-color="rgb(95.466614%, 65.45105%, 41.044617%)" offset="0.625"/><stop stop-opacity="1" stop-color="rgb(95.550537%, 65.797424%, 41.61377%)" offset="0.628906"/><stop stop-opacity="1" stop-color="rgb(95.635986%, 66.143799%, 42.182922%)" offset="0.632812"/><stop stop-opacity="1" stop-color="rgb(95.721436%, 66.490173%, 42.752075%)" offset="0.636719"/><stop stop-opacity="1" stop-color="rgb(95.806885%, 66.838074%, 43.321228%)" offset="0.640625"/><stop stop-opacity="1" stop-color="rgb(95.892334%, 67.184448%, 43.890381%)" offset="0.644531"/><stop stop-opacity="1" stop-color="rgb(95.977783%, 67.530823%, 44.459534%)" offset="0.648438"/><stop stop-opacity="1" stop-color="rgb(96.061707%, 67.877197%, 45.028687%)" offset="0.652344"/><stop stop-opacity="1" stop-color="rgb(96.147156%, 68.225098%, 45.599365%)" offset="0.65625"/><stop stop-opacity="1" stop-color="rgb(96.232605%, 68.571472%, 46.168518%)" offset="0.660156"/><stop stop-opacity="1" stop-color="rgb(96.318054%, 68.917847%, 46.737671%)" offset="0.664062"/><stop stop-opacity="1" stop-color="rgb(96.401978%, 69.264221%, 47.306824%)" offset="0.667969"/><stop stop-opacity="1" stop-color="rgb(96.487427%, 69.612122%, 47.875977%)" offset="0.671875"/><stop stop-opacity="1" stop-color="rgb(96.572876%, 69.958496%, 48.445129%)" offset="0.675781"/><stop stop-opacity="1" stop-color="rgb(96.658325%, 70.304871%, 49.015808%)" offset="0.679688"/><stop stop-opacity="1" stop-color="rgb(96.742249%, 70.651245%, 49.584961%)" offset="0.683594"/><stop stop-opacity="1" stop-color="rgb(96.827698%, 70.999146%, 50.154114%)" offset="0.6875"/><stop stop-opacity="1" stop-color="rgb(96.913147%, 71.34552%, 50.723267%)" offset="0.691406"/><stop stop-opacity="1" stop-color="rgb(96.998596%, 71.691895%, 51.292419%)" offset="0.695312"/><stop stop-opacity="1" stop-color="rgb(97.08252%, 72.038269%, 51.861572%)" offset="0.699219"/><stop stop-opacity="1" stop-color="rgb(97.167969%, 72.386169%, 52.432251%)" offset="0.703125"/><stop stop-opacity="1" stop-color="rgb(97.253418%, 72.732544%, 53.001404%)" offset="0.707031"/><stop stop-opacity="1" stop-color="rgb(97.338867%, 73.078918%, 53.570557%)" offset="0.710937"/><stop stop-opacity="1" stop-color="rgb(97.424316%, 73.425293%, 54.139709%)" offset="0.714844"/><stop stop-opacity="1" stop-color="rgb(97.509766%, 73.773193%, 54.708862%)" offset="0.71875"/><stop stop-opacity="1" stop-color="rgb(97.593689%, 74.119568%, 55.278015%)" offset="0.722656"/><stop stop-opacity="1" stop-color="rgb(97.679138%, 74.465942%, 55.847168%)" offset="0.726562"/><stop stop-opacity="1" stop-color="rgb(97.764587%, 74.812317%, 56.416321%)" offset="0.730469"/><stop stop-opacity="1" stop-color="rgb(97.850037%, 75.160217%, 56.987%)" offset="0.734375"/><stop stop-opacity="1" stop-color="rgb(97.93396%, 75.506592%, 57.556152%)" offset="0.738281"/><stop stop-opacity="1" stop-color="rgb(98.019409%, 75.852966%, 58.125305%)" offset="0.742188"/><stop stop-opacity="1" stop-color="rgb(98.104858%, 76.199341%, 58.694458%)" offset="0.746094"/><stop stop-opacity="1" stop-color="rgb(98.190308%, 76.547241%, 59.263611%)" offset="0.75"/><stop stop-opacity="1" stop-color="rgb(98.274231%, 76.893616%, 59.832764%)" offset="0.753906"/><stop stop-opacity="1" stop-color="rgb(98.35968%, 77.23999%, 60.403442%)" offset="0.757812"/><stop stop-opacity="1" stop-color="rgb(98.445129%, 77.586365%, 60.972595%)" offset="0.761719"/><stop stop-opacity="1" stop-color="rgb(98.530579%, 77.934265%, 61.541748%)" offset="0.765625"/><stop stop-opacity="1" stop-color="rgb(98.614502%, 78.28064%, 62.110901%)" offset="0.769531"/><stop stop-opacity="1" stop-color="rgb(98.699951%, 78.627014%, 62.680054%)" offset="0.773438"/><stop stop-opacity="1" stop-color="rgb(98.7854%, 78.973389%, 63.249207%)" offset="0.777344"/><stop stop-opacity="1" stop-color="rgb(98.87085%, 79.321289%, 63.819885%)" offset="0.78125"/><stop stop-opacity="1" stop-color="rgb(98.954773%, 79.667664%, 64.389038%)" offset="0.785156"/><stop stop-opacity="1" stop-color="rgb(99.040222%, 80.014038%, 64.958191%)" offset="0.789062"/><stop stop-opacity="1" stop-color="rgb(99.125671%, 80.360413%, 65.527344%)" offset="0.792969"/><stop stop-opacity="1" stop-color="rgb(99.211121%, 80.708313%, 66.096497%)" offset="0.796875"/><stop stop-opacity="1" stop-color="rgb(99.29657%, 81.054688%, 66.665649%)" offset="0.800781"/><stop stop-opacity="1" stop-color="rgb(99.382019%, 81.401062%, 67.234802%)" offset="0.804688"/><stop stop-opacity="1" stop-color="rgb(99.465942%, 81.747437%, 67.803955%)" offset="0.808594"/><stop stop-opacity="1" stop-color="rgb(99.551392%, 82.095337%, 68.374634%)" offset="0.8125"/><stop stop-opacity="1" stop-color="rgb(99.636841%, 82.441711%, 68.943787%)" offset="0.816406"/><stop stop-opacity="1" stop-color="rgb(99.72229%, 82.788086%, 69.512939%)" offset="0.820312"/><stop stop-opacity="1" stop-color="rgb(99.806213%, 83.13446%, 70.082092%)" offset="0.824219"/><stop stop-opacity="1" stop-color="rgb(99.891663%, 83.482361%, 70.651245%)" offset="0.828125"/><stop stop-opacity="1" stop-color="rgb(99.945068%, 83.700562%, 71.009827%)" offset="0.832031"/><stop stop-opacity="1" stop-color="rgb(100%, 83.918762%, 71.369934%)" offset="0.835937"/><stop stop-opacity="1" stop-color="rgb(100%, 83.918762%, 71.369934%)" offset="0.84375"/><stop stop-opacity="1" stop-color="rgb(100%, 83.918762%, 71.369934%)" offset="0.875"/><stop stop-opacity="1" stop-color="rgb(100%, 83.918762%, 71.369934%)" offset="1"/></linearGradient><clipPath id="f4ba31e35b"><rect x="0" width="525" y="0" height="524"/></clipPath><clipPath id="6c5a0db221"><path d="M 0.5 0 L 524.5 0 L 524.5 524 L 0.5 524 Z M 0.5 0 " clip-rule="nonzero"/></clipPath><clipPath id="cc6da5167b"><rect x="0" width="525" y="0" height="524"/></clipPath><clipPath id="1c0f5b97c9"><rect x="0" width="525" y="0" height="524"/></clipPath><mask id="ada043be34"><g filter="url(#a0c4426d9e)"><g transform="matrix(1, 0, 0, 1, 0.000000000000000056, 0.000000000000109615)"><g clip-path="url(#1c0f5b97c9)"><g clip-path="url(#6c5a0db221)"><g transform="matrix(1, 0, 0, 1, 0.000000000000000056, 0.000000000000109615)"><g clip-path="url(#cc6da5167b)"><g fill="#000000" fill-opacity="1"><g transform="translate(30.512124, 408.484421)"><g><path d="M 112.109375 -91.890625 C 110.984375 -93.285156 109.648438 -93.351562 108.109375 -92.09375 C 106.566406 -90.832031 106.359375 -89.5 107.484375 -88.09375 L 132.34375 -49.734375 C 129.25 -35.117188 121.59375 -23.175781 109.375 -13.90625 C 97.15625 -4.632812 83.175781 0 67.4375 0 C 55.070312 0 43.691406 -3.019531 33.296875 -9.0625 C 22.898438 -15.101562 14.679688 -23.320312 8.640625 -33.71875 C 2.597656 -44.113281 -0.421875 -55.492188 -0.421875 -67.859375 L -0.421875 -231.8125 C -0.421875 -243.894531 2.597656 -255.0625 8.640625 -265.3125 C 14.679688 -275.570312 22.898438 -283.789062 33.296875 -289.96875 C 43.691406 -296.15625 55.070312 -299.25 67.4375 -299.25 C 77.269531 -299.25 86.472656 -297.210938 95.046875 -293.140625 C 103.617188 -289.066406 111.414062 -283.519531 118.4375 -276.5 L 163.53125 -232.234375 C 163.53125 -250.503906 170.132812 -266.238281 183.34375 -279.4375 C 190.09375 -286.1875 197.539062 -291.175781 205.6875 -294.40625 C 213.832031 -297.632812 222.257812 -299.25 230.96875 -299.25 C 239.6875 -299.25 248.117188 -297.632812 256.265625 -294.40625 C 264.410156 -291.175781 271.851562 -286.1875 278.59375 -279.4375 L 442.5625 -115.90625 C 451.550781 -106.914062 457.585938 -96.660156 460.671875 -85.140625 C 463.765625 -73.617188 463.835938 -62.164062 460.890625 -50.78125 C 457.941406 -39.40625 451.832031 -29.222656 442.5625 -20.234375 C 436.09375 -13.484375 428.710938 -8.421875 420.421875 -5.046875 C 412.140625 -1.679688 403.644531 0 394.9375 0 C 386.5 0 378.132812 -1.679688 369.84375 -5.046875 C 361.5625 -8.421875 354.046875 -13.484375 347.296875 -20.234375 L 276.078125 -91.890625 C 274.953125 -92.453125 273.753906 -92.3125 272.484375 -91.46875 C 271.222656 -90.625 271.15625 -89.5 272.28125 -88.09375 L 296.296875 -49.734375 C 292.367188 -34.273438 284.082031 -22.117188 271.4375 -13.265625 C 258.789062 -4.421875 245.160156 0 230.546875 0 C 222.679688 0 214.742188 -1.539062 206.734375 -4.625 C 198.722656 -7.71875 191.347656 -12.640625 184.609375 -19.390625 Z M 112.109375 -91.890625 "/></g></g></g></g></g></g></g></g></g></mask><clipPath id="c0118b2b4d"><path d="M 0.5 0 L 524.5 0 L 524.5 524 L 0.5 524 Z M 0.5 0 " clip-rule="nonzero"/></clipPath><clipPath id="0e98723038"><rect x="0" width="525" y="0" height="524"/></clipPath><clipPath id="fb2198d927"><rect x="0" width="525" y="0" height="524"/></clipPath><clipPath id="e8b943c328"><rect x="0" width="525" y="0" height="524"/></clipPath></defs><g clip-path="url(#918f831045)"><g transform="matrix(1, 0, 0, 1, 0.000000000000000056, 0.000000000000109615)"><g clip-path="url(#e8b943c328)"><g fill="#ffffff" fill-opacity="1"><g transform="translate(30.512124, 408.484421)"><g><path d="M 95.660156 -78.71875 C 96.957031 -77.097656 98.53125 -75.730469 100.390625 -74.617188 C 103.082031 -73 106.007812 -72.113281 109.164062 -71.945312 C 113.925781 -71.695312 118.023438 -72.972656 121.457031 -75.785156 C 124.828125 -78.542969 126.882812 -82.234375 127.609375 -86.859375 C 128.472656 -92.316406 127.246094 -97.117188 123.9375 -101.257812 L 124.589844 -100.4375 L 154.769531 -53.894531 L 152.964844 -45.375 C 148.792969 -25.640625 138.507812 -9.554688 122.113281 2.882812 C 106.125 15.011719 87.898438 21.074219 67.4375 21.074219 C 51.289062 21.074219 36.378906 17.101562 22.710938 9.160156 C 9.09375 1.246094 -1.667969 -9.515625 -9.582031 -23.128906 C -17.523438 -36.800781 -21.496094 -51.710938 -21.496094 -67.859375 L -21.496094 -231.816406 C -21.496094 -247.730469 -17.503906 -262.464844 -9.519531 -276.023438 C -1.648438 -289.382812 9.035156 -300.074219 22.527344 -308.097656 C 36.242188 -316.253906 51.214844 -320.332031 67.4375 -320.332031 C 80.441406 -320.332031 92.660156 -317.613281 104.09375 -312.179688 C 114.851562 -307.0625 124.601562 -300.136719 133.339844 -291.398438 L 178.296875 -247.28125 L 163.539062 -232.238281 L 142.460938 -232.238281 C 142.460938 -256.324219 151.125 -277.027344 168.445312 -294.347656 C 177.242188 -303.148438 187.066406 -309.695312 197.917969 -314 C 208.5625 -318.21875 219.582031 -320.332031 230.976562 -320.332031 C 242.371094 -320.332031 253.390625 -318.21875 264.035156 -314 C 274.882812 -309.695312 284.707031 -303.148438 293.503906 -294.347656 L 457.445312 -130.832031 C 469.109375 -119.164062 476.976562 -105.757812 481.039062 -90.601562 C 485.09375 -75.5 485.175781 -60.46875 481.296875 -45.5 C 477.355469 -30.304688 469.335938 -16.839844 457.234375 -5.101562 L 442.5625 -20.230469 L 457.777344 -5.648438 C 449.242188 3.257812 439.441406 9.960938 428.375 14.464844 C 417.539062 18.871094 406.394531 21.074219 394.933594 21.074219 C 383.757812 21.074219 372.75 18.871094 361.914062 14.464844 C 350.992188 10.019531 341.15625 3.421875 332.402344 -5.328125 L 261.128906 -77.027344 L 276.074219 -91.882812 L 266.648438 -73.035156 C 269.84375 -71.4375 273.226562 -70.851562 276.796875 -71.269531 C 279.546875 -71.59375 282.011719 -72.480469 284.183594 -73.925781 C 286.152344 -75.242188 287.828125 -76.914062 289.207031 -78.945312 C 291.195312 -81.878906 292.300781 -85.121094 292.523438 -88.671875 C 292.828125 -93.527344 291.566406 -97.722656 288.738281 -101.257812 L 289.496094 -100.308594 L 318.953125 -53.277344 L 316.730469 -44.535156 C 311.507812 -24.027344 300.441406 -7.855469 283.523438 3.988281 C 267.25 15.378906 249.59375 21.074219 230.554688 21.074219 C 220.070312 21.074219 209.601562 19.058594 199.152344 15.023438 C 188.371094 10.863281 178.554688 4.359375 169.710938 -4.488281 L 96.386719 -77.808594 Z M 128.574219 -105.050781 L 112.117188 -91.882812 L 127.019531 -106.785156 L 199.511719 -34.289062 C 204.15625 -29.648438 209.09375 -26.316406 214.328125 -24.296875 C 219.894531 -22.148438 225.304688 -21.074219 230.554688 -21.074219 C 240.738281 -21.074219 250.335938 -24.230469 259.351562 -30.542969 C 267.726562 -36.402344 273.234375 -44.535156 275.882812 -54.933594 L 296.304688 -49.734375 L 278.445312 -38.546875 L 254.421875 -76.902344 L 272.28125 -88.089844 L 255.824219 -74.925781 C 251.871094 -79.867188 250.082031 -85.324219 250.457031 -91.300781 C 250.714844 -95.417969 252.003906 -99.1875 254.328125 -102.613281 C 256.039062 -105.132812 258.199219 -107.261719 260.800781 -108.996094 C 264.238281 -111.289062 267.929688 -112.667969 271.875 -113.128906 C 276.640625 -113.691406 281.183594 -112.894531 285.5 -110.734375 L 288.585938 -109.191406 L 362.207031 -35.132812 C 366.941406 -30.398438 372.140625 -26.878906 377.796875 -24.578125 C 383.539062 -22.242188 389.253906 -21.074219 394.933594 -21.074219 C 400.898438 -21.074219 406.75 -22.242188 412.492188 -24.578125 C 418.007812 -26.820312 422.957031 -30.234375 427.347656 -34.8125 L 427.613281 -35.09375 L 427.890625 -35.359375 C 434.332031 -41.609375 438.535156 -48.515625 440.496094 -56.078125 C 442.515625 -63.871094 442.460938 -71.738281 440.332031 -79.679688 C 438.214844 -87.566406 434 -94.667969 427.679688 -100.988281 L 263.703125 -264.542969 C 259.011719 -269.234375 253.945312 -272.660156 248.496094 -274.820312 C 242.84375 -277.0625 237.003906 -278.183594 230.976562 -278.183594 C 224.949219 -278.183594 219.109375 -277.0625 213.453125 -274.820312 C 208.007812 -272.660156 202.9375 -269.234375 198.25 -264.542969 C 189.15625 -255.453125 184.613281 -244.683594 184.613281 -232.238281 L 184.613281 -182.03125 L 103.535156 -261.59375 C 98.226562 -266.90625 92.378906 -271.078125 85.996094 -274.113281 C 80.289062 -276.824219 74.101562 -278.183594 67.4375 -278.183594 C 58.9375 -278.183594 51.144531 -276.078125 44.066406 -271.871094 C 36.769531 -267.527344 31.011719 -261.78125 26.800781 -254.628906 C 22.703125 -247.675781 20.652344 -240.070312 20.652344 -231.816406 L 20.652344 -67.859375 C 20.652344 -59.28125 22.722656 -51.429688 26.863281 -44.308594 C 31.03125 -37.128906 36.707031 -31.453125 43.886719 -27.285156 C 51.007812 -23.144531 58.859375 -21.074219 67.4375 -21.074219 C 78.449219 -21.074219 88.179688 -24.28125 96.640625 -30.699219 C 104.691406 -36.808594 109.722656 -44.605469 111.730469 -54.097656 L 132.347656 -49.734375 L 114.664062 -38.269531 L 89.796875 -76.625 L 107.480469 -88.089844 L 91.023438 -74.925781 C 86.585938 -80.472656 84.90625 -86.640625 85.976562 -93.433594 C 86.917969 -99.390625 89.847656 -104.382812 94.765625 -108.40625 C 99.746094 -112.480469 105.285156 -114.355469 111.378906 -114.035156 C 118.339844 -113.667969 124.074219 -110.675781 128.574219 -105.050781 Z M 128.574219 -105.050781 "/></g></g></g><g clip-path="url(#dc8a912219)"><g transform="matrix(1, 0, 0, 1, 0.000000000000000056, 0.000000000000109615)"><g clip-path="url(#fb2198d927)"><g clip-path="url(#aa6846868c)"><g mask="url(#ada043be34)"><g transform="matrix(1, 0, 0, 1, 0.000000000000000056, 0.000000000000109615)"><g clip-path="url(#0e98723038)"><g clip-path="url(#c0118b2b4d)"><path fill="url(#384159de20)" d="M 0.5 0 L 0.5 524 L 524.5 524 L 524.5 0 Z M 0.5 0 " fill-rule="nonzero"/></g></g></g></g></g></g></g></g></g></g></g></svg>