<svg xmlns="http://www.w3.org/2000/svg" xmlns:xlink="http://www.w3.org/1999/xlink" width="700" zoomAndPan="magnify" viewBox="0 0 525 525.000007" height="700" preserveAspectRatio="xMidYMid meet" version="1.0"><defs><filter x="0%" y="0%" width="100%" height="100%" id="f7add28743"><feColorMatrix values="0 0 0 0 1 0 0 0 0 1 0 0 0 0 1 0 0 0 1 0" color-interpolation-filters="sRGB"/></filter><g/><clipPath id="7ea1e1bbc0"><path d="M 0.5 0 L 524.5 0 L 524.5 524 L 0.5 524 Z M 0.5 0 " clip-rule="nonzero"/></clipPath><clipPath id="426212b961"><path d="M 0.5 0 L 524.5 0 L 524.5 524 L 0.5 524 Z M 0.5 0 " clip-rule="nonzero"/></clipPath><clipPath id="367163eb23"><path d="M 0.5 0 L 524.5 0 L 524.5 524 L 0.5 524 Z M 0.5 0 " clip-rule="nonzero"/></clipPath><clipPath id="b7bb269715"><path d="M 0.5 0 L 524.5 0 L 524.5 524 L 0.5 524 Z M 0.5 0 " clip-rule="nonzero"/></clipPath><linearGradient x1="4.370591" gradientTransform="matrix(1.556763, 0, 0, 1.556428, -3.690396, 49.563815)" y1="306.504399" x2="341.003899" gradientUnits="userSpaceOnUse" y2="-30.128909" id="fd20f29313"><stop stop-opacity="1" stop-color="rgb(27.449036%, 7.058716%, 28.239441%)" offset="0"/><stop stop-opacity="1" stop-color="rgb(27.449036%, 7.058716%, 28.239441%)" offset="0.0625"/><stop stop-opacity="1" stop-color="rgb(27.449036%, 7.058716%, 28.239441%)" offset="0.09375"/><stop stop-opacity="1" stop-color="rgb(27.577209%, 7.107544%, 28.237915%)" offset="0.109375"/><stop stop-opacity="1" stop-color="rgb(28.239441%, 7.354736%, 28.230286%)" offset="0.113281"/><stop stop-opacity="1" stop-color="rgb(28.771973%, 7.553101%, 28.225708%)" offset="0.117187"/><stop stop-opacity="1" stop-color="rgb(29.302979%, 7.751465%, 28.219604%)" offset="0.121094"/><stop stop-opacity="1" stop-color="rgb(29.83551%, 7.951355%, 28.215027%)" offset="0.125"/><stop stop-opacity="1" stop-color="rgb(30.368042%, 8.149719%, 28.208923%)" offset="0.128906"/><stop stop-opacity="1" stop-color="rgb(30.900574%, 8.349609%, 28.204346%)" offset="0.132812"/><stop stop-opacity="1" stop-color="rgb(31.43158%, 8.547974%, 28.198242%)" offset="0.136719"/><stop stop-opacity="1" stop-color="rgb(31.964111%, 8.746338%, 28.192139%)" offset="0.140625"/><stop stop-opacity="1" stop-color="rgb(32.495117%, 8.944702%, 28.186035%)" offset="0.144531"/><stop stop-opacity="1" stop-color="rgb(33.027649%, 9.144592%, 28.181458%)" offset="0.148437"/><stop stop-opacity="1" stop-color="rgb(33.560181%, 9.342957%, 28.175354%)" offset="0.152344"/><stop stop-opacity="1" stop-color="rgb(34.092712%, 9.542847%, 28.170776%)" offset="0.15625"/><stop stop-opacity="1" stop-color="rgb(34.623718%, 9.741211%, 28.164673%)" offset="0.160156"/><stop stop-opacity="1" stop-color="rgb(35.15625%, 9.939575%, 28.160095%)" offset="0.164062"/><stop stop-opacity="1" stop-color="rgb(35.687256%, 10.137939%, 28.153992%)" offset="0.167969"/><stop stop-opacity="1" stop-color="rgb(36.219788%, 10.33783%, 28.149414%)" offset="0.171875"/><stop stop-opacity="1" stop-color="rgb(36.752319%, 10.536194%, 28.143311%)" offset="0.175781"/><stop stop-opacity="1" stop-color="rgb(37.284851%, 10.736084%, 28.137207%)" offset="0.179687"/><stop stop-opacity="1" stop-color="rgb(37.815857%, 10.934448%, 28.131104%)" offset="0.183594"/><stop stop-opacity="1" stop-color="rgb(38.348389%, 11.132812%, 28.126526%)" offset="0.1875"/><stop stop-opacity="1" stop-color="rgb(38.879395%, 11.331177%, 28.120422%)" offset="0.191406"/><stop stop-opacity="1" stop-color="rgb(39.411926%, 11.531067%, 28.115845%)" offset="0.195312"/><stop stop-opacity="1" stop-color="rgb(39.944458%, 11.729431%, 28.109741%)" offset="0.199219"/><stop stop-opacity="1" stop-color="rgb(40.47699%, 11.929321%, 28.105164%)" offset="0.203125"/><stop stop-opacity="1" stop-color="rgb(41.007996%, 12.127686%, 28.09906%)" offset="0.207031"/><stop stop-opacity="1" stop-color="rgb(41.540527%, 12.32605%, 28.094482%)" offset="0.210937"/><stop stop-opacity="1" stop-color="rgb(42.073059%, 12.524414%, 28.088379%)" offset="0.214844"/><stop stop-opacity="1" stop-color="rgb(42.605591%, 12.724304%, 28.083801%)" offset="0.21875"/><stop stop-opacity="1" stop-color="rgb(43.136597%, 12.922668%, 28.077698%)" offset="0.222656"/><stop stop-opacity="1" stop-color="rgb(43.669128%, 13.121033%, 28.071594%)" offset="0.226562"/><stop stop-opacity="1" stop-color="rgb(44.200134%, 13.319397%, 28.065491%)" offset="0.230469"/><stop stop-opacity="1" stop-color="rgb(44.732666%, 13.519287%, 28.060913%)" offset="0.234375"/><stop stop-opacity="1" stop-color="rgb(45.265198%, 13.717651%, 28.05481%)" offset="0.238281"/><stop stop-opacity="1" stop-color="rgb(45.797729%, 13.917542%, 28.050232%)" offset="0.242187"/><stop stop-opacity="1" stop-color="rgb(46.328735%, 14.115906%, 28.044128%)" offset="0.246094"/><stop stop-opacity="1" stop-color="rgb(46.861267%, 14.31427%, 28.039551%)" offset="0.25"/><stop stop-opacity="1" stop-color="rgb(47.392273%, 14.512634%, 28.033447%)" offset="0.253906"/><stop stop-opacity="1" stop-color="rgb(47.924805%, 14.712524%, 28.02887%)" offset="0.257812"/><stop stop-opacity="1" stop-color="rgb(48.457336%, 14.910889%, 28.022766%)" offset="0.261719"/><stop stop-opacity="1" stop-color="rgb(48.989868%, 15.110779%, 28.016663%)" offset="0.265625"/><stop stop-opacity="1" stop-color="rgb(49.520874%, 15.309143%, 28.010559%)" offset="0.269531"/><stop stop-opacity="1" stop-color="rgb(50.053406%, 15.507507%, 28.005981%)" offset="0.273437"/><stop stop-opacity="1" stop-color="rgb(50.584412%, 15.705872%, 27.999878%)" offset="0.277344"/><stop stop-opacity="1" stop-color="rgb(51.116943%, 15.905762%, 27.9953%)" offset="0.28125"/><stop stop-opacity="1" stop-color="rgb(51.649475%, 16.104126%, 27.989197%)" offset="0.285156"/><stop stop-opacity="1" stop-color="rgb(52.182007%, 16.304016%, 27.984619%)" offset="0.289062"/><stop stop-opacity="1" stop-color="rgb(52.713013%, 16.50238%, 27.978516%)" offset="0.292969"/><stop stop-opacity="1" stop-color="rgb(53.245544%, 16.700745%, 27.973938%)" offset="0.296875"/><stop stop-opacity="1" stop-color="rgb(53.77655%, 16.899109%, 27.967834%)" offset="0.300781"/><stop stop-opacity="1" stop-color="rgb(54.309082%, 17.098999%, 27.961731%)" offset="0.304687"/><stop stop-opacity="1" stop-color="rgb(54.841614%, 17.297363%, 27.955627%)" offset="0.308594"/><stop stop-opacity="1" stop-color="rgb(55.374146%, 17.497253%, 27.95105%)" offset="0.3125"/><stop stop-opacity="1" stop-color="rgb(55.905151%, 17.695618%, 27.944946%)" offset="0.316406"/><stop stop-opacity="1" stop-color="rgb(56.437683%, 17.893982%, 27.940369%)" offset="0.320312"/><stop stop-opacity="1" stop-color="rgb(56.970215%, 18.092346%, 27.934265%)" offset="0.324219"/><stop stop-opacity="1" stop-color="rgb(57.502747%, 18.292236%, 27.929688%)" offset="0.328125"/><stop stop-opacity="1" stop-color="rgb(58.033752%, 18.490601%, 27.923584%)" offset="0.332031"/><stop stop-opacity="1" stop-color="rgb(58.566284%, 18.690491%, 27.919006%)" offset="0.335937"/><stop stop-opacity="1" stop-color="rgb(59.09729%, 18.888855%, 27.912903%)" offset="0.339844"/><stop stop-opacity="1" stop-color="rgb(59.629822%, 19.087219%, 27.908325%)" offset="0.34375"/><stop stop-opacity="1" stop-color="rgb(60.162354%, 19.285583%, 27.902222%)" offset="0.347656"/><stop stop-opacity="1" stop-color="rgb(60.694885%, 19.485474%, 27.896118%)" offset="0.351562"/><stop stop-opacity="1" stop-color="rgb(61.225891%, 19.683838%, 27.890015%)" offset="0.355469"/><stop stop-opacity="1" stop-color="rgb(61.758423%, 19.883728%, 27.885437%)" offset="0.359375"/><stop stop-opacity="1" stop-color="rgb(62.289429%, 20.082092%, 27.879333%)" offset="0.363281"/><stop stop-opacity="1" stop-color="rgb(62.82196%, 20.280457%, 27.874756%)" offset="0.367187"/><stop stop-opacity="1" stop-color="rgb(63.354492%, 20.478821%, 27.868652%)" offset="0.371094"/><stop stop-opacity="1" stop-color="rgb(63.887024%, 20.678711%, 27.864075%)" offset="0.375"/><stop stop-opacity="1" stop-color="rgb(64.41803%, 20.877075%, 27.857971%)" offset="0.378906"/><stop stop-opacity="1" stop-color="rgb(64.950562%, 21.076965%, 27.853394%)" offset="0.382812"/><stop stop-opacity="1" stop-color="rgb(65.481567%, 21.27533%, 27.84729%)" offset="0.386719"/><stop stop-opacity="1" stop-color="rgb(66.014099%, 21.473694%, 27.841187%)" offset="0.390625"/><stop stop-opacity="1" stop-color="rgb(66.514587%, 22.062683%, 27.963257%)" offset="0.394531"/><stop stop-opacity="1" stop-color="rgb(67.015076%, 22.653198%, 28.085327%)" offset="0.398437"/><stop stop-opacity="1" stop-color="rgb(67.504883%, 23.364258%, 28.245544%)" offset="0.402344"/><stop stop-opacity="1" stop-color="rgb(67.996216%, 24.076843%, 28.407288%)" offset="0.40625"/><stop stop-opacity="1" stop-color="rgb(68.486023%, 24.789429%, 28.567505%)" offset="0.410156"/><stop stop-opacity="1" stop-color="rgb(68.977356%, 25.502014%, 28.729248%)" offset="0.414062"/><stop stop-opacity="1" stop-color="rgb(69.467163%, 26.213074%, 28.889465%)" offset="0.417969"/><stop stop-opacity="1" stop-color="rgb(69.958496%, 26.925659%, 29.051208%)" offset="0.421875"/><stop stop-opacity="1" stop-color="rgb(70.448303%, 27.638245%, 29.212952%)" offset="0.425781"/><stop stop-opacity="1" stop-color="rgb(70.939636%, 28.35083%, 29.374695%)" offset="0.429687"/><stop stop-opacity="1" stop-color="rgb(71.429443%, 29.06189%, 29.534912%)" offset="0.433594"/><stop stop-opacity="1" stop-color="rgb(71.920776%, 29.774475%, 29.696655%)" offset="0.4375"/><stop stop-opacity="1" stop-color="rgb(72.410583%, 30.487061%, 29.856873%)" offset="0.441406"/><stop stop-opacity="1" stop-color="rgb(72.901917%, 31.199646%, 30.018616%)" offset="0.445312"/><stop stop-opacity="1" stop-color="rgb(73.391724%, 31.910706%, 30.180359%)" offset="0.449219"/><stop stop-opacity="1" stop-color="rgb(73.883057%, 32.623291%, 30.342102%)" offset="0.453125"/><stop stop-opacity="1" stop-color="rgb(74.372864%, 33.335876%, 30.502319%)" offset="0.457031"/><stop stop-opacity="1" stop-color="rgb(74.862671%, 34.048462%, 30.664062%)" offset="0.460937"/><stop stop-opacity="1" stop-color="rgb(75.352478%, 34.759521%, 30.82428%)" offset="0.464844"/><stop stop-opacity="1" stop-color="rgb(75.843811%, 35.472107%, 30.986023%)" offset="0.46875"/><stop stop-opacity="1" stop-color="rgb(76.333618%, 36.183167%, 31.147766%)" offset="0.472656"/><stop stop-opacity="1" stop-color="rgb(76.824951%, 36.895752%, 31.309509%)" offset="0.476562"/><stop stop-opacity="1" stop-color="rgb(77.314758%, 37.608337%, 31.469727%)" offset="0.480469"/><stop stop-opacity="1" stop-color="rgb(77.806091%, 38.320923%, 31.63147%)" offset="0.484375"/><stop stop-opacity="1" stop-color="rgb(78.295898%, 39.031982%, 31.791687%)" offset="0.488281"/><stop stop-opacity="1" stop-color="rgb(78.787231%, 39.744568%, 31.95343%)" offset="0.492187"/><stop stop-opacity="1" stop-color="rgb(79.277039%, 40.457153%, 32.113647%)" offset="0.496094"/><stop stop-opacity="1" stop-color="rgb(79.768372%, 41.169739%, 32.275391%)" offset="0.5"/><stop stop-opacity="1" stop-color="rgb(80.258179%, 41.880798%, 32.437134%)" offset="0.503906"/><stop stop-opacity="1" stop-color="rgb(80.749512%, 42.593384%, 32.598877%)" offset="0.507812"/><stop stop-opacity="1" stop-color="rgb(81.239319%, 43.305969%, 32.759094%)" offset="0.511719"/><stop stop-opacity="1" stop-color="rgb(81.730652%, 44.018555%, 32.920837%)" offset="0.515625"/><stop stop-opacity="1" stop-color="rgb(82.220459%, 44.729614%, 33.081055%)" offset="0.519531"/><stop stop-opacity="1" stop-color="rgb(82.711792%, 45.4422%, 33.242798%)" offset="0.523437"/><stop stop-opacity="1" stop-color="rgb(83.201599%, 46.154785%, 33.404541%)" offset="0.527344"/><stop stop-opacity="1" stop-color="rgb(83.691406%, 46.867371%, 33.566284%)" offset="0.53125"/><stop stop-opacity="1" stop-color="rgb(84.181213%, 47.57843%, 33.726501%)" offset="0.535156"/><stop stop-opacity="1" stop-color="rgb(84.672546%, 48.291016%, 33.888245%)" offset="0.539062"/><stop stop-opacity="1" stop-color="rgb(85.162354%, 49.002075%, 34.048462%)" offset="0.542969"/><stop stop-opacity="1" stop-color="rgb(85.653687%, 49.714661%, 34.210205%)" offset="0.546875"/><stop stop-opacity="1" stop-color="rgb(86.143494%, 50.427246%, 34.371948%)" offset="0.550781"/><stop stop-opacity="1" stop-color="rgb(86.634827%, 51.139832%, 34.533691%)" offset="0.554687"/><stop stop-opacity="1" stop-color="rgb(87.124634%, 51.850891%, 34.693909%)" offset="0.558594"/><stop stop-opacity="1" stop-color="rgb(87.615967%, 52.563477%, 34.855652%)" offset="0.5625"/><stop stop-opacity="1" stop-color="rgb(88.105774%, 53.276062%, 35.015869%)" offset="0.566406"/><stop stop-opacity="1" stop-color="rgb(88.597107%, 53.988647%, 35.177612%)" offset="0.570312"/><stop stop-opacity="1" stop-color="rgb(89.086914%, 54.699707%, 35.33783%)" offset="0.574219"/><stop stop-opacity="1" stop-color="rgb(89.578247%, 55.412292%, 35.499573%)" offset="0.578125"/><stop stop-opacity="1" stop-color="rgb(90.068054%, 56.124878%, 35.661316%)" offset="0.582031"/><stop stop-opacity="1" stop-color="rgb(90.559387%, 56.837463%, 35.823059%)" offset="0.585938"/><stop stop-opacity="1" stop-color="rgb(91.049194%, 57.548523%, 35.983276%)" offset="0.589844"/><stop stop-opacity="1" stop-color="rgb(91.540527%, 58.261108%, 36.14502%)" offset="0.59375"/><stop stop-opacity="1" stop-color="rgb(92.030334%, 58.973694%, 36.305237%)" offset="0.597656"/><stop stop-opacity="1" stop-color="rgb(92.520142%, 59.686279%, 36.46698%)" offset="0.601562"/><stop stop-opacity="1" stop-color="rgb(93.009949%, 60.397339%, 36.628723%)" offset="0.605469"/><stop stop-opacity="1" stop-color="rgb(93.501282%, 61.109924%, 36.790466%)" offset="0.609375"/><stop stop-opacity="1" stop-color="rgb(93.991089%, 61.82251%, 36.950684%)" offset="0.613281"/><stop stop-opacity="1" stop-color="rgb(94.482422%, 62.535095%, 37.112427%)" offset="0.617188"/><stop stop-opacity="1" stop-color="rgb(94.73114%, 63.000488%, 37.449646%)" offset="0.621094"/><stop stop-opacity="1" stop-color="rgb(94.979858%, 63.467407%, 37.786865%)" offset="0.625"/><stop stop-opacity="1" stop-color="rgb(95.048523%, 63.751221%, 38.253784%)" offset="0.628906"/><stop stop-opacity="1" stop-color="rgb(95.118713%, 64.03656%, 38.722229%)" offset="0.632812"/><stop stop-opacity="1" stop-color="rgb(95.188904%, 64.320374%, 39.189148%)" offset="0.636719"/><stop stop-opacity="1" stop-color="rgb(95.259094%, 64.605713%, 39.657593%)" offset="0.640625"/><stop stop-opacity="1" stop-color="rgb(95.329285%, 64.891052%, 40.124512%)" offset="0.644531"/><stop stop-opacity="1" stop-color="rgb(95.399475%, 65.176392%, 40.592957%)" offset="0.648438"/><stop stop-opacity="1" stop-color="rgb(95.46814%, 65.460205%, 41.059875%)" offset="0.652344"/><stop stop-opacity="1" stop-color="rgb(95.53833%, 65.745544%, 41.52832%)" offset="0.65625"/><stop stop-opacity="1" stop-color="rgb(95.608521%, 66.029358%, 41.995239%)" offset="0.660156"/><stop stop-opacity="1" stop-color="rgb(95.678711%, 66.314697%, 42.463684%)" offset="0.664062"/><stop stop-opacity="1" stop-color="rgb(95.748901%, 66.598511%, 42.930603%)" offset="0.667969"/><stop stop-opacity="1" stop-color="rgb(95.819092%, 66.88385%, 43.399048%)" offset="0.671875"/><stop stop-opacity="1" stop-color="rgb(95.887756%, 67.169189%, 43.865967%)" offset="0.675781"/><stop stop-opacity="1" stop-color="rgb(95.957947%, 67.454529%, 44.334412%)" offset="0.679688"/><stop stop-opacity="1" stop-color="rgb(96.028137%, 67.738342%, 44.801331%)" offset="0.683594"/><stop stop-opacity="1" stop-color="rgb(96.098328%, 68.023682%, 45.269775%)" offset="0.6875"/><stop stop-opacity="1" stop-color="rgb(96.166992%, 68.307495%, 45.736694%)" offset="0.691406"/><stop stop-opacity="1" stop-color="rgb(96.237183%, 68.592834%, 46.205139%)" offset="0.695312"/><stop stop-opacity="1" stop-color="rgb(96.307373%, 68.878174%, 46.672058%)" offset="0.699219"/><stop stop-opacity="1" stop-color="rgb(96.377563%, 69.163513%, 47.140503%)" offset="0.703125"/><stop stop-opacity="1" stop-color="rgb(96.447754%, 69.447327%, 47.607422%)" offset="0.707031"/><stop stop-opacity="1" stop-color="rgb(96.517944%, 69.732666%, 48.075867%)" offset="0.710938"/><stop stop-opacity="1" stop-color="rgb(96.586609%, 70.016479%, 48.542786%)" offset="0.714844"/><stop stop-opacity="1" stop-color="rgb(96.656799%, 70.301819%, 49.009705%)" offset="0.71875"/><stop stop-opacity="1" stop-color="rgb(96.72699%, 70.587158%, 49.476624%)" offset="0.722656"/><stop stop-opacity="1" stop-color="rgb(96.79718%, 70.872498%, 49.945068%)" offset="0.726562"/><stop stop-opacity="1" stop-color="rgb(96.867371%, 71.156311%, 50.411987%)" offset="0.730469"/><stop stop-opacity="1" stop-color="rgb(96.937561%, 71.44165%, 50.880432%)" offset="0.734375"/><stop stop-opacity="1" stop-color="rgb(97.006226%, 71.725464%, 51.347351%)" offset="0.738281"/><stop stop-opacity="1" stop-color="rgb(97.076416%, 72.010803%, 51.815796%)" offset="0.742188"/><stop stop-opacity="1" stop-color="rgb(97.146606%, 72.294617%, 52.282715%)" offset="0.746094"/><stop stop-opacity="1" stop-color="rgb(97.216797%, 72.579956%, 52.75116%)" offset="0.75"/><stop stop-opacity="1" stop-color="rgb(97.285461%, 72.865295%, 53.218079%)" offset="0.753906"/><stop stop-opacity="1" stop-color="rgb(97.355652%, 73.150635%, 53.686523%)" offset="0.757812"/><stop stop-opacity="1" stop-color="rgb(97.425842%, 73.434448%, 54.153442%)" offset="0.761719"/><stop stop-opacity="1" stop-color="rgb(97.496033%, 73.719788%, 54.621887%)" offset="0.765625"/><stop stop-opacity="1" stop-color="rgb(97.566223%, 74.003601%, 55.088806%)" offset="0.769531"/><stop stop-opacity="1" stop-color="rgb(97.636414%, 74.28894%, 55.557251%)" offset="0.773438"/><stop stop-opacity="1" stop-color="rgb(97.705078%, 74.57428%, 56.02417%)" offset="0.777344"/><stop stop-opacity="1" stop-color="rgb(97.775269%, 74.859619%, 56.492615%)" offset="0.78125"/><stop stop-opacity="1" stop-color="rgb(97.845459%, 75.143433%, 56.959534%)" offset="0.785156"/><stop stop-opacity="1" stop-color="rgb(97.915649%, 75.428772%, 57.427979%)" offset="0.789062"/><stop stop-opacity="1" stop-color="rgb(97.984314%, 75.712585%, 57.894897%)" offset="0.792969"/><stop stop-opacity="1" stop-color="rgb(98.054504%, 75.997925%, 58.363342%)" offset="0.796875"/><stop stop-opacity="1" stop-color="rgb(98.124695%, 76.281738%, 58.830261%)" offset="0.800781"/><stop stop-opacity="1" stop-color="rgb(98.194885%, 76.567078%, 59.298706%)" offset="0.804688"/><stop stop-opacity="1" stop-color="rgb(98.265076%, 76.852417%, 59.765625%)" offset="0.808594"/><stop stop-opacity="1" stop-color="rgb(98.335266%, 77.137756%, 60.23407%)" offset="0.8125"/><stop stop-opacity="1" stop-color="rgb(98.403931%, 77.42157%, 60.700989%)" offset="0.816406"/><stop stop-opacity="1" stop-color="rgb(98.474121%, 77.706909%, 61.169434%)" offset="0.820312"/><stop stop-opacity="1" stop-color="rgb(98.544312%, 77.990723%, 61.636353%)" offset="0.824219"/><stop stop-opacity="1" stop-color="rgb(98.614502%, 78.276062%, 62.104797%)" offset="0.828125"/><stop stop-opacity="1" stop-color="rgb(98.684692%, 78.561401%, 62.571716%)" offset="0.832031"/><stop stop-opacity="1" stop-color="rgb(98.754883%, 78.846741%, 63.038635%)" offset="0.835938"/><stop stop-opacity="1" stop-color="rgb(98.823547%, 79.130554%, 63.505554%)" offset="0.839844"/><stop stop-opacity="1" stop-color="rgb(98.893738%, 79.415894%, 63.973999%)" offset="0.84375"/><stop stop-opacity="1" stop-color="rgb(98.963928%, 79.699707%, 64.440918%)" offset="0.847656"/><stop stop-opacity="1" stop-color="rgb(99.034119%, 79.985046%, 64.909363%)" offset="0.851562"/><stop stop-opacity="1" stop-color="rgb(99.102783%, 80.26886%, 65.376282%)" offset="0.855469"/><stop stop-opacity="1" stop-color="rgb(99.172974%, 80.554199%, 65.844727%)" offset="0.859375"/><stop stop-opacity="1" stop-color="rgb(99.243164%, 80.839539%, 66.311646%)" offset="0.863281"/><stop stop-opacity="1" stop-color="rgb(99.313354%, 81.124878%, 66.78009%)" offset="0.867188"/><stop stop-opacity="1" stop-color="rgb(99.383545%, 81.408691%, 67.247009%)" offset="0.871094"/><stop stop-opacity="1" stop-color="rgb(99.453735%, 81.694031%, 67.715454%)" offset="0.875"/><stop stop-opacity="1" stop-color="rgb(99.5224%, 81.977844%, 68.182373%)" offset="0.878906"/><stop stop-opacity="1" stop-color="rgb(99.59259%, 82.263184%, 68.650818%)" offset="0.882812"/><stop stop-opacity="1" stop-color="rgb(99.662781%, 82.548523%, 69.117737%)" offset="0.886719"/><stop stop-opacity="1" stop-color="rgb(99.732971%, 82.833862%, 69.586182%)" offset="0.890625"/><stop stop-opacity="1" stop-color="rgb(99.801636%, 83.117676%, 70.053101%)" offset="0.894531"/><stop stop-opacity="1" stop-color="rgb(99.871826%, 83.403015%, 70.521545%)" offset="0.898438"/><stop stop-opacity="1" stop-color="rgb(99.935913%, 83.660889%, 70.94574%)" offset="0.902344"/><stop stop-opacity="1" stop-color="rgb(100%, 83.918762%, 71.369934%)" offset="0.90625"/><stop stop-opacity="1" stop-color="rgb(100%, 83.918762%, 71.369934%)" offset="0.9375"/><stop stop-opacity="1" stop-color="rgb(100%, 83.918762%, 71.369934%)" offset="1"/></linearGradient><clipPath id="ad0ab2b6a1"><rect x="0" width="525" y="0" height="524"/></clipPath><clipPath id="adb62b27f3"><path d="M 0.5 0 L 524.5 0 L 524.5 524 L 0.5 524 Z M 0.5 0 " clip-rule="nonzero"/></clipPath><clipPath id="dfca2f78a9"><rect x="0" width="525" y="0" height="524"/></clipPath><clipPath id="8a22f0e8e3"><rect x="0" width="525" y="0" height="524"/></clipPath><mask id="59af67d04c"><g filter="url(#f7add28743)"><g transform="matrix(1, 0, 0, 1, 0.000000000000000056, 0.000000000000109615)"><g clip-path="url(#8a22f0e8e3)"><g clip-path="url(#adb62b27f3)"><g transform="matrix(1, 0, 0, 1, 0.000000000000000056, 0.000000000000109615)"><g clip-path="url(#dfca2f78a9)"><g fill="#000000" fill-opacity="1"><g transform="translate(19.575377, 399.794975)"><g><path d="M -3.484375 -268.65625 C -3.484375 -277.03125 -0.34375 -284.359375 5.9375 -290.640625 C 12.21875 -296.921875 19.539062 -300.0625 27.90625 -300.0625 L 101.1875 -300.0625 C 108.164062 -300.0625 114.910156 -297.269531 121.421875 -291.6875 C 127.460938 -294.007812 133.625 -295.984375 139.90625 -297.609375 C 146.1875 -299.242188 152.816406 -300.0625 159.796875 -300.0625 L 185.625 -300.0625 C 194.457031 -300.0625 203.410156 -298.78125 212.484375 -296.21875 C 221.554688 -293.664062 229.8125 -290.523438 237.25 -286.796875 C 252.144531 -295.640625 269.359375 -300.0625 288.890625 -300.0625 L 346.109375 -300.0625 C 365.179688 -300.0625 382.625 -295.523438 398.4375 -286.453125 C 414.257812 -277.378906 426.828125 -265.398438 436.140625 -250.515625 L 454.96875 -232.375 C 464.738281 -222.601562 472.414062 -211.320312 478 -198.53125 C 483.582031 -185.738281 486.375 -171.898438 486.375 -157.015625 L 486.375 24.421875 C 486.375 31.867188 483.46875 38.613281 477.65625 44.65625 C 471.84375 50.707031 464.976562 53.734375 457.0625 53.734375 L 383.796875 53.734375 C 376.347656 53.734375 369.601562 50.707031 363.5625 44.65625 L 337.046875 18.84375 C 331.929688 16.519531 328.207031 13.726562 325.875 10.46875 L 325.875 24.421875 C 325.875 31.867188 322.96875 38.613281 317.15625 44.65625 C 311.34375 50.707031 304.484375 53.734375 296.578125 53.734375 L 223.296875 53.734375 C 215.859375 53.734375 209.113281 50.707031 203.0625 44.65625 L 176.546875 18.84375 C 171.429688 16.519531 167.707031 13.726562 165.375 10.46875 L 165.375 24.421875 C 165.375 31.867188 162.46875 38.613281 156.65625 44.65625 C 150.84375 50.707031 143.984375 53.734375 136.078125 53.734375 L 62.796875 53.734375 C 55.359375 53.734375 48.613281 50.707031 42.5625 44.65625 L 16.046875 18.140625 C 10.460938 15.816406 5.8125 11.976562 2.09375 6.625 C -1.625 1.28125 -3.484375 -4.414062 -3.484375 -10.46875 Z M -3.484375 -268.65625 "/></g></g></g></g></g></g></g></g></g></mask><clipPath id="b4d5e98e3b"><path d="M 0.5 0 L 524.5 0 L 524.5 524 L 0.5 524 Z M 0.5 0 " clip-rule="nonzero"/></clipPath><clipPath id="18e017ff51"><rect x="0" width="525" y="0" height="524"/></clipPath><clipPath id="b39115baa6"><rect x="0" width="525" y="0" height="524"/></clipPath><clipPath id="266bf3a600"><rect x="0" width="525" y="0" height="524"/></clipPath><clipPath id="9719e6a475"><rect x="0" width="312" y="0" height="120"/></clipPath></defs><g clip-path="url(#7ea1e1bbc0)"><path fill="#ffffff" d="M 0.5 0 L 524.5 0 L 524.5 524 L 0.5 524 Z M 0.5 0 " fill-opacity="1" fill-rule="nonzero"/><path fill="#ffffff" d="M 0.5 0 L 524.5 0 L 524.5 524 L 0.5 524 Z M 0.5 0 " fill-opacity="1" fill-rule="nonzero"/><g transform="matrix(1, 0, 0, 1, 0.000000000000000056, 0.000000000000109615)"><g clip-path="url(#266bf3a600)"><g clip-path="url(#426212b961)"><g transform="matrix(1, 0, 0, 1, 0.000000000000000056, 0.000000000000109615)"><g clip-path="url(#b39115baa6)"><g clip-path="url(#367163eb23)"><g mask="url(#59af67d04c)"><g transform="matrix(1, 0, 0, 1, 0.000000000000000056, 0.000000000000109615)"><g clip-path="url(#18e017ff51)"><g clip-path="url(#b4d5e98e3b)"><path fill="url(#fd20f29313)" d="M 0.5 0 L 0.5 524 L 524.5 524 L 524.5 0 Z M 0.5 0 " fill-rule="nonzero"/></g></g></g></g></g></g></g></g></g></g></g><g transform="matrix(1, 0, 0, 1, 28, 121)"><g clip-path="url(#9719e6a475)"><g fill="#e4e2dd" fill-opacity="1"><g transform="translate(0.109371, 94.846887)"><g><path d="M 6.578125 0 L 6.578125 -49.9375 L 20.96875 -49.9375 L 21.4375 -40.90625 L 19.375 -40.71875 C 20.0625 -42.34375 21 -43.78125 22.1875 -45.03125 C 23.382812 -46.289062 24.71875 -47.34375 26.1875 -48.1875 C 27.65625 -49.03125 29.203125 -49.6875 30.828125 -50.15625 C 32.460938 -50.632812 34.097656 -50.875 35.734375 -50.875 C 38.242188 -50.875 40.484375 -50.492188 42.453125 -49.734375 C 44.429688 -48.984375 46.15625 -47.757812 47.625 -46.0625 C 49.101562 -44.375 50.28125 -42.125 51.15625 -39.3125 L 48.890625 -39.6875 L 49.546875 -41 C 50.429688 -42.5 51.515625 -43.859375 52.796875 -45.078125 C 54.078125 -46.304688 55.5 -47.359375 57.0625 -48.234375 C 58.632812 -49.109375 60.25 -49.765625 61.90625 -50.203125 C 63.570312 -50.648438 65.191406 -50.875 66.765625 -50.875 C 70.710938 -50.875 74 -50.085938 76.625 -48.515625 C 79.257812 -46.953125 81.234375 -44.648438 82.546875 -41.609375 C 83.867188 -38.566406 84.53125 -34.820312 84.53125 -30.375 L 84.53125 0 L 69.390625 0 L 69.390625 -29.25 C 69.390625 -32.1875 68.78125 -34.390625 67.5625 -35.859375 C 66.34375 -37.335938 64.507812 -38.078125 62.0625 -38.078125 C 60.75 -38.078125 59.539062 -37.875 58.4375 -37.46875 C 57.34375 -37.0625 56.398438 -36.46875 55.609375 -35.6875 C 54.828125 -34.90625 54.21875 -34.007812 53.78125 -33 C 53.34375 -32 53.125 -30.875 53.125 -29.625 L 53.125 0 L 37.984375 0 L 37.984375 -29.34375 C 37.984375 -32.15625 37.34375 -34.3125 36.0625 -35.8125 C 34.78125 -37.320312 32.976562 -38.078125 30.65625 -38.078125 C 29.40625 -38.078125 28.226562 -37.875 27.125 -37.46875 C 26.03125 -37.0625 25.085938 -36.46875 24.296875 -35.6875 C 23.515625 -34.90625 22.90625 -34.007812 22.46875 -33 C 22.03125 -32 21.8125 -30.875 21.8125 -29.625 L 21.8125 0 Z M 6.578125 0 "/></g></g></g><g fill="#e4e2dd" fill-opacity="1"><g transform="translate(90.540181, 94.846887)"><g><path d="M 33.28125 0 L 33.28125 -30.65625 C 33.28125 -33.226562 32.578125 -35.125 31.171875 -36.34375 C 29.765625 -37.5625 27.804688 -38.171875 25.296875 -38.171875 C 22.847656 -38.171875 20.664062 -37.71875 18.75 -36.8125 C 16.84375 -35.90625 15.015625 -34.414062 13.265625 -32.34375 L 4.234375 -41.09375 C 7.242188 -44.164062 10.691406 -46.578125 14.578125 -48.328125 C 18.460938 -50.085938 22.691406 -50.96875 27.265625 -50.96875 C 31.460938 -50.96875 35.097656 -50.335938 38.171875 -49.078125 C 41.242188 -47.828125 43.625 -45.914062 45.3125 -43.34375 C 47.007812 -40.78125 47.859375 -37.519531 47.859375 -33.5625 L 47.859375 0 Z M 20.3125 0.9375 C 17.175781 0.9375 14.335938 0.3125 11.796875 -0.9375 C 9.265625 -2.195312 7.257812 -3.9375 5.78125 -6.15625 C 4.3125 -8.382812 3.578125 -11.003906 3.578125 -14.015625 C 3.578125 -16.578125 4.046875 -18.832031 4.984375 -20.78125 C 5.921875 -22.726562 7.3125 -24.34375 9.15625 -25.625 C 11.007812 -26.90625 13.332031 -27.875 16.125 -28.53125 C 18.914062 -29.195312 22.160156 -29.53125 25.859375 -29.53125 L 41 -29.53125 L 40.15625 -20.03125 L 26.234375 -20.03125 C 24.921875 -20.03125 23.757812 -19.921875 22.75 -19.703125 C 21.75 -19.484375 20.90625 -19.132812 20.21875 -18.65625 C 19.53125 -18.1875 19.007812 -17.640625 18.65625 -17.015625 C 18.3125 -16.390625 18.140625 -15.640625 18.140625 -14.765625 C 18.140625 -13.828125 18.390625 -13.007812 18.890625 -12.3125 C 19.398438 -11.625 20.078125 -11.09375 20.921875 -10.71875 C 21.765625 -10.34375 22.753906 -10.15625 23.890625 -10.15625 C 25.515625 -10.15625 27.0625 -10.421875 28.53125 -10.953125 C 30.007812 -11.484375 31.328125 -12.25 32.484375 -13.25 C 33.648438 -14.257812 34.578125 -15.421875 35.265625 -16.734375 L 37.890625 -9.96875 C 36.578125 -7.832031 34.992188 -5.945312 33.140625 -4.3125 C 31.296875 -2.6875 29.289062 -1.40625 27.125 -0.46875 C 24.96875 0.46875 22.695312 0.9375 20.3125 0.9375 Z M 20.3125 0.9375 "/></g></g></g><g fill="#e4e2dd" fill-opacity="1"><g transform="translate(143.745848, 94.846887)"><g><path d="M 6.671875 20.6875 L 6.671875 -49.9375 L 21.0625 -49.9375 L 21.71875 -38.921875 L 18.8125 -39.78125 C 19.1875 -41.78125 20.234375 -43.609375 21.953125 -45.265625 C 23.679688 -46.929688 25.828125 -48.28125 28.390625 -49.3125 C 30.960938 -50.351562 33.691406 -50.875 36.578125 -50.875 C 40.835938 -50.875 44.628906 -49.773438 47.953125 -47.578125 C 51.273438 -45.378906 53.890625 -42.320312 55.796875 -38.40625 C 57.710938 -34.488281 58.671875 -29.992188 58.671875 -24.921875 C 58.671875 -19.960938 57.710938 -15.539062 55.796875 -11.65625 C 53.890625 -7.769531 51.257812 -4.710938 47.90625 -2.484375 C 44.550781 -0.265625 40.742188 0.84375 36.484375 0.84375 C 33.597656 0.84375 30.867188 0.296875 28.296875 -0.796875 C 25.734375 -1.890625 23.570312 -3.3125 21.8125 -5.0625 C 20.0625 -6.820312 18.9375 -8.738281 18.4375 -10.8125 L 21.90625 -12.21875 L 21.90625 20.6875 Z M 32.8125 -11.9375 C 35.070312 -11.9375 37.03125 -12.46875 38.6875 -13.53125 C 40.351562 -14.601562 41.640625 -16.125 42.546875 -18.09375 C 43.453125 -20.070312 43.90625 -22.347656 43.90625 -24.921875 C 43.90625 -27.554688 43.453125 -29.859375 42.546875 -31.828125 C 41.640625 -33.804688 40.351562 -35.34375 38.6875 -36.4375 C 37.03125 -37.53125 35.070312 -38.078125 32.8125 -38.078125 C 30.5 -38.078125 28.492188 -37.53125 26.796875 -36.4375 C 25.109375 -35.34375 23.789062 -33.820312 22.84375 -31.875 C 21.90625 -29.9375 21.4375 -27.617188 21.4375 -24.921875 C 21.4375 -22.347656 21.90625 -20.070312 22.84375 -18.09375 C 23.789062 -16.125 25.109375 -14.601562 26.796875 -13.53125 C 28.492188 -12.46875 30.5 -11.9375 32.8125 -11.9375 Z M 32.8125 -11.9375 "/></g></g></g><g fill="#e4e2dd" fill-opacity="1"><g transform="translate(205.599788, 94.846887)"><g><path d="M 6.671875 20.6875 L 6.671875 -49.9375 L 21.0625 -49.9375 L 21.71875 -38.921875 L 18.8125 -39.78125 C 19.1875 -41.78125 20.234375 -43.609375 21.953125 -45.265625 C 23.679688 -46.929688 25.828125 -48.28125 28.390625 -49.3125 C 30.960938 -50.351562 33.691406 -50.875 36.578125 -50.875 C 40.835938 -50.875 44.628906 -49.773438 47.953125 -47.578125 C 51.273438 -45.378906 53.890625 -42.320312 55.796875 -38.40625 C 57.710938 -34.488281 58.671875 -29.992188 58.671875 -24.921875 C 58.671875 -19.960938 57.710938 -15.539062 55.796875 -11.65625 C 53.890625 -7.769531 51.257812 -4.710938 47.90625 -2.484375 C 44.550781 -0.265625 40.742188 0.84375 36.484375 0.84375 C 33.597656 0.84375 30.867188 0.296875 28.296875 -0.796875 C 25.734375 -1.890625 23.570312 -3.3125 21.8125 -5.0625 C 20.0625 -6.820312 18.9375 -8.738281 18.4375 -10.8125 L 21.90625 -12.21875 L 21.90625 20.6875 Z M 32.8125 -11.9375 C 35.070312 -11.9375 37.03125 -12.46875 38.6875 -13.53125 C 40.351562 -14.601562 41.640625 -16.125 42.546875 -18.09375 C 43.453125 -20.070312 43.90625 -22.347656 43.90625 -24.921875 C 43.90625 -27.554688 43.453125 -29.859375 42.546875 -31.828125 C 41.640625 -33.804688 40.351562 -35.34375 38.6875 -36.4375 C 37.03125 -37.53125 35.070312 -38.078125 32.8125 -38.078125 C 30.5 -38.078125 28.492188 -37.53125 26.796875 -36.4375 C 25.109375 -35.34375 23.789062 -33.820312 22.84375 -31.875 C 21.90625 -29.9375 21.4375 -27.617188 21.4375 -24.921875 C 21.4375 -22.347656 21.90625 -20.070312 22.84375 -18.09375 C 23.789062 -16.125 25.109375 -14.601562 26.796875 -13.53125 C 28.492188 -12.46875 30.5 -11.9375 32.8125 -11.9375 Z M 32.8125 -11.9375 "/></g></g></g><g fill="#e4e2dd" fill-opacity="1"><g transform="translate(267.453727, 94.846887)"><g><path d="M 6.671875 0 L 6.671875 -49.9375 L 21.0625 -49.9375 L 21.71875 -33.65625 L 18.90625 -36.859375 C 19.71875 -39.492188 20.96875 -41.875 22.65625 -44 C 24.351562 -46.132812 26.375 -47.828125 28.71875 -49.078125 C 31.070312 -50.335938 33.535156 -50.96875 36.109375 -50.96875 C 37.234375 -50.96875 38.28125 -50.890625 39.25 -50.734375 C 40.226562 -50.578125 41.09375 -50.34375 41.84375 -50.03125 L 37.796875 -33.375 C 37.109375 -33.75 36.179688 -34.078125 35.015625 -34.359375 C 33.859375 -34.648438 32.65625 -34.796875 31.40625 -34.796875 C 30.03125 -34.796875 28.757812 -34.554688 27.59375 -34.078125 C 26.4375 -33.609375 25.429688 -32.9375 24.578125 -32.0625 C 23.734375 -31.1875 23.078125 -30.148438 22.609375 -28.953125 C 22.140625 -27.765625 21.90625 -26.421875 21.90625 -24.921875 L 21.90625 0 Z M 6.671875 0 "/></g></g></g></g></g></svg>