<svg xmlns="http://www.w3.org/2000/svg" xmlns:xlink="http://www.w3.org/1999/xlink" width="700" zoomAndPan="magnify" viewBox="0 0 525 525.000007" height="700" preserveAspectRatio="xMidYMid meet" version="1.0"><defs><clipPath id="979f3f4213"><path d="M 0.625 0.128906 L 513.703125 0.128906 L 513.703125 513.207031 L 0.625 513.207031 Z M 0.625 0.128906 " clip-rule="nonzero"/></clipPath><clipPath id="51b845c723"><path d="M 138.835938 0.128906 L 376.160156 0.128906 C 378.421875 0.128906 380.683594 0.183594 382.945312 0.292969 C 385.203125 0.40625 387.457031 0.570312 389.707031 0.792969 C 391.960938 1.015625 394.203125 1.292969 396.441406 1.625 C 398.679688 1.957031 400.90625 2.34375 403.125 2.785156 C 405.34375 3.222656 407.550781 3.71875 409.746094 4.269531 C 411.9375 4.820312 414.117188 5.421875 416.28125 6.078125 C 418.445312 6.734375 420.59375 7.445312 422.722656 8.207031 C 424.851562 8.96875 426.964844 9.78125 429.050781 10.648438 C 431.140625 11.515625 433.210938 12.429688 435.253906 13.398438 C 437.300781 14.363281 439.320312 15.382812 441.3125 16.449219 C 443.308594 17.511719 445.277344 18.628906 447.214844 19.789062 C 449.15625 20.953125 451.066406 22.164062 452.949219 23.421875 C 454.828125 24.675781 456.675781 25.980469 458.492188 27.328125 C 460.308594 28.671875 462.09375 30.066406 463.839844 31.5 C 465.589844 32.933594 467.300781 34.410156 468.976562 35.929688 C 470.652344 37.449219 472.292969 39.007812 473.890625 40.609375 C 475.492188 42.207031 477.050781 43.84375 478.570312 45.523438 C 480.089844 47.199219 481.566406 48.910156 483 50.660156 C 484.433594 52.40625 485.824219 54.1875 487.171875 56.007812 C 488.519531 57.824219 489.824219 59.671875 491.078125 61.550781 C 492.335938 63.433594 493.546875 65.34375 494.707031 67.285156 C 495.871094 69.222656 496.988281 71.191406 498.050781 73.1875 C 499.117188 75.179688 500.136719 77.199219 501.101562 79.246094 C 502.070312 81.289062 502.984375 83.359375 503.851562 85.449219 C 504.71875 87.535156 505.53125 89.648438 506.292969 91.777344 C 507.054688 93.90625 507.765625 96.054688 508.421875 98.21875 C 509.078125 100.382812 509.679688 102.5625 510.230469 104.753906 C 510.78125 106.949219 511.277344 109.15625 511.714844 111.375 C 512.15625 113.59375 512.542969 115.820312 512.875 118.058594 C 513.207031 120.296875 513.484375 122.539062 513.707031 124.792969 C 513.929688 127.042969 514.09375 129.296875 514.207031 131.554688 C 514.316406 133.816406 514.371094 136.078125 514.371094 138.339844 L 514.371094 375.664062 C 514.371094 377.925781 514.316406 380.183594 514.207031 382.445312 C 514.09375 384.703125 513.929688 386.957031 513.707031 389.210938 C 513.484375 391.460938 513.207031 393.703125 512.875 395.941406 C 512.542969 398.179688 512.15625 400.40625 511.714844 402.625 C 511.277344 404.84375 510.78125 407.050781 510.230469 409.246094 C 509.679688 411.4375 509.078125 413.617188 508.421875 415.78125 C 507.765625 417.949219 507.054688 420.09375 506.292969 422.222656 C 505.53125 424.355469 504.71875 426.464844 503.851562 428.554688 C 502.984375 430.644531 502.070312 432.710938 501.101562 434.753906 C 500.136719 436.800781 499.117188 438.820312 498.050781 440.816406 C 496.988281 442.808594 495.871094 444.777344 494.710938 446.71875 C 493.546875 448.65625 492.335938 450.566406 491.078125 452.449219 C 489.824219 454.328125 488.519531 456.179688 487.171875 457.996094 C 485.824219 459.8125 484.433594 461.59375 483 463.34375 C 481.566406 465.089844 480.089844 466.804688 478.570312 468.480469 C 477.050781 470.15625 475.492188 471.792969 473.890625 473.390625 C 472.292969 474.992188 470.652344 476.550781 468.976562 478.070312 C 467.300781 479.589844 465.589844 481.066406 463.839844 482.5 C 462.09375 483.9375 460.308594 485.328125 458.492188 486.675781 C 456.675781 488.023438 454.828125 489.324219 452.949219 490.582031 C 451.066406 491.835938 449.15625 493.046875 447.214844 494.210938 C 445.277344 495.371094 443.308594 496.488281 441.3125 497.554688 C 439.320312 498.621094 437.300781 499.636719 435.253906 500.605469 C 433.210938 501.570312 431.140625 502.488281 429.050781 503.351562 C 426.964844 504.21875 424.851562 505.03125 422.722656 505.792969 C 420.59375 506.554688 418.445312 507.265625 416.28125 507.921875 C 414.117188 508.578125 411.9375 509.183594 409.746094 509.730469 C 407.550781 510.28125 405.34375 510.777344 403.125 511.21875 C 400.90625 511.660156 398.679688 512.046875 396.441406 512.378906 C 394.203125 512.710938 391.960938 512.984375 389.707031 513.207031 C 387.457031 513.429688 385.203125 513.597656 382.945312 513.707031 C 380.683594 513.816406 378.421875 513.875 376.160156 513.875 L 138.835938 513.875 C 136.574219 513.875 134.316406 513.816406 132.054688 513.707031 C 129.796875 513.597656 127.542969 513.429688 125.289062 513.207031 C 123.039062 512.984375 120.796875 512.710938 118.558594 512.378906 C 116.320312 512.046875 114.09375 511.660156 111.875 511.21875 C 109.65625 510.777344 107.449219 510.28125 105.253906 509.730469 C 103.0625 509.183594 100.882812 508.578125 98.71875 507.921875 C 96.550781 507.265625 94.40625 506.554688 92.277344 505.792969 C 90.144531 505.03125 88.035156 504.21875 85.945312 503.351562 C 83.855469 502.488281 81.789062 501.570312 79.746094 500.605469 C 77.699219 499.636719 75.679688 498.621094 73.683594 497.554688 C 71.691406 496.488281 69.722656 495.371094 67.78125 494.210938 C 65.84375 493.046875 63.933594 491.835938 62.050781 490.582031 C 60.171875 489.324219 58.320312 488.023438 56.503906 486.675781 C 54.6875 485.328125 52.90625 483.9375 51.15625 482.5 C 49.410156 481.066406 47.695312 479.589844 46.019531 478.070312 C 44.34375 476.550781 42.707031 474.992188 41.109375 473.390625 C 39.507812 471.792969 37.949219 470.15625 36.429688 468.480469 C 34.910156 466.804688 33.433594 465.089844 32 463.34375 C 30.5625 461.59375 29.171875 459.8125 27.824219 457.996094 C 26.476562 456.179688 25.175781 454.328125 23.917969 452.449219 C 22.664062 450.566406 21.453125 448.65625 20.289062 446.71875 C 19.128906 444.777344 18.011719 442.808594 16.945312 440.816406 C 15.878906 438.820312 14.863281 436.800781 13.894531 434.753906 C 12.929688 432.710938 12.011719 430.644531 11.148438 428.554688 C 10.28125 426.464844 9.46875 424.355469 8.707031 422.222656 C 7.945312 420.09375 7.234375 417.949219 6.578125 415.785156 C 5.921875 413.617188 5.316406 411.4375 4.769531 409.246094 C 4.21875 407.050781 3.722656 404.84375 3.28125 402.625 C 2.839844 400.40625 2.453125 398.179688 2.121094 395.941406 C 1.789062 393.703125 1.515625 391.460938 1.292969 389.210938 C 1.070312 386.957031 0.902344 384.703125 0.792969 382.445312 C 0.683594 380.183594 0.625 377.925781 0.625 375.664062 L 0.625 138.339844 C 0.625 136.078125 0.683594 133.816406 0.792969 131.554688 C 0.902344 129.296875 1.070312 127.042969 1.292969 124.792969 C 1.515625 122.539062 1.789062 120.296875 2.121094 118.058594 C 2.453125 115.820312 2.839844 113.59375 3.28125 111.375 C 3.722656 109.15625 4.21875 106.949219 4.769531 104.753906 C 5.316406 102.5625 5.921875 100.382812 6.578125 98.21875 C 7.234375 96.054688 7.945312 93.90625 8.707031 91.777344 C 9.46875 89.648438 10.28125 87.535156 11.148438 85.449219 C 12.011719 83.359375 12.929688 81.289062 13.894531 79.246094 C 14.863281 77.199219 15.878906 75.179688 16.945312 73.1875 C 18.011719 71.191406 19.128906 69.222656 20.289062 67.285156 C 21.453125 65.34375 22.664062 63.433594 23.917969 61.550781 C 25.175781 59.671875 26.476562 57.824219 27.824219 56.007812 C 29.171875 54.191406 30.5625 52.40625 32 50.660156 C 33.433594 48.910156 34.910156 47.199219 36.429688 45.523438 C 37.949219 43.84375 39.507812 42.207031 41.109375 40.609375 C 42.707031 39.007812 44.34375 37.449219 46.019531 35.929688 C 47.695312 34.410156 49.410156 32.933594 51.15625 31.5 C 52.90625 30.066406 54.6875 28.671875 56.503906 27.328125 C 58.320312 25.980469 60.171875 24.675781 62.050781 23.421875 C 63.933594 22.164062 65.84375 20.953125 67.78125 19.789062 C 69.722656 18.628906 71.691406 17.511719 73.683594 16.449219 C 75.679688 15.382812 77.699219 14.363281 79.746094 13.398438 C 81.789062 12.429688 83.855469 11.515625 85.945312 10.648438 C 88.035156 9.78125 90.144531 8.96875 92.277344 8.207031 C 94.40625 7.445312 96.550781 6.734375 98.71875 6.078125 C 100.882812 5.421875 103.0625 4.820312 105.253906 4.269531 C 107.449219 3.71875 109.65625 3.222656 111.875 2.785156 C 114.09375 2.34375 116.320312 1.957031 118.558594 1.625 C 120.796875 1.292969 123.039062 1.015625 125.289062 0.792969 C 127.542969 0.570312 129.796875 0.40625 132.054688 0.292969 C 134.316406 0.183594 136.574219 0.128906 138.835938 0.128906 Z M 138.835938 0.128906 " clip-rule="nonzero"/></clipPath><linearGradient x1="21.457455" gradientTransform="matrix(0, -2.176889, 2.176889, 0, 0.62659, 513.873467)" y1="-15.316506" x2="214.503151" gradientUnits="userSpaceOnUse" y2="251.260405" id="964176c352"><stop stop-opacity="1" stop-color="rgb(81.506348%, 31.741333%, 0.915527%)" offset="0"/><stop stop-opacity="1" stop-color="rgb(81.698608%, 31.887817%, 1.03302%)" offset="0.015625"/><stop stop-opacity="1" stop-color="rgb(82.084656%, 32.182312%, 1.266479%)" offset="0.03125"/><stop stop-opacity="1" stop-color="rgb(82.469177%, 32.478333%, 1.501465%)" offset="0.046875"/><stop stop-opacity="1" stop-color="rgb(82.855225%, 32.772827%, 1.73645%)" offset="0.0625"/><stop stop-opacity="1" stop-color="rgb(83.241272%, 33.067322%, 1.971436%)" offset="0.078125"/><stop stop-opacity="1" stop-color="rgb(83.627319%, 33.363342%, 2.204895%)" offset="0.09375"/><stop stop-opacity="1" stop-color="rgb(84.013367%, 33.657837%, 2.43988%)" offset="0.109375"/><stop stop-opacity="1" stop-color="rgb(84.399414%, 33.952332%, 2.674866%)" offset="0.125"/><stop stop-opacity="1" stop-color="rgb(84.785461%, 34.248352%, 2.909851%)" offset="0.140625"/><stop stop-opacity="1" stop-color="rgb(85.171509%, 34.542847%, 3.143311%)" offset="0.15625"/><stop stop-opacity="1" stop-color="rgb(85.557556%, 34.837341%, 3.378296%)" offset="0.171875"/><stop stop-opacity="1" stop-color="rgb(85.942078%, 35.133362%, 3.613281%)" offset="0.1875"/><stop stop-opacity="1" stop-color="rgb(86.328125%, 35.427856%, 3.848267%)" offset="0.203125"/><stop stop-opacity="1" stop-color="rgb(86.714172%, 35.722351%, 4.081726%)" offset="0.21875"/><stop stop-opacity="1" stop-color="rgb(87.10022%, 36.018372%, 4.316711%)" offset="0.234375"/><stop stop-opacity="1" stop-color="rgb(87.486267%, 36.312866%, 4.551697%)" offset="0.25"/><stop stop-opacity="1" stop-color="rgb(87.872314%, 36.607361%, 4.786682%)" offset="0.265625"/><stop stop-opacity="1" stop-color="rgb(88.258362%, 36.903381%, 5.020142%)" offset="0.28125"/><stop stop-opacity="1" stop-color="rgb(88.644409%, 37.197876%, 5.255127%)" offset="0.296875"/><stop stop-opacity="1" stop-color="rgb(89.028931%, 37.492371%, 5.490112%)" offset="0.3125"/><stop stop-opacity="1" stop-color="rgb(89.414978%, 37.788391%, 5.725098%)" offset="0.328125"/><stop stop-opacity="1" stop-color="rgb(89.801025%, 38.082886%, 5.958557%)" offset="0.34375"/><stop stop-opacity="1" stop-color="rgb(90.187073%, 38.37738%, 6.193542%)" offset="0.359375"/><stop stop-opacity="1" stop-color="rgb(90.57312%, 38.673401%, 6.428528%)" offset="0.375"/><stop stop-opacity="1" stop-color="rgb(90.959167%, 38.967896%, 6.663513%)" offset="0.390625"/><stop stop-opacity="1" stop-color="rgb(91.345215%, 39.26239%, 6.896973%)" offset="0.40625"/><stop stop-opacity="1" stop-color="rgb(91.731262%, 39.558411%, 7.131958%)" offset="0.420009"/><stop stop-opacity="1" stop-color="rgb(91.925049%, 39.706421%, 7.249451%)" offset="0.421875"/><stop stop-opacity="1" stop-color="rgb(92.11731%, 39.852905%, 7.366943%)" offset="0.4375"/><stop stop-opacity="1" stop-color="rgb(92.501831%, 40.1474%, 7.601929%)" offset="0.453125"/><stop stop-opacity="1" stop-color="rgb(92.887878%, 40.44342%, 7.835388%)" offset="0.46875"/><stop stop-opacity="1" stop-color="rgb(93.273926%, 40.737915%, 8.070374%)" offset="0.484375"/><stop stop-opacity="1" stop-color="rgb(93.659973%, 41.03241%, 8.305359%)" offset="0.5"/><stop stop-opacity="1" stop-color="rgb(94.046021%, 41.32843%, 8.540344%)" offset="0.515625"/><stop stop-opacity="1" stop-color="rgb(94.432068%, 41.622925%, 8.773804%)" offset="0.53125"/><stop stop-opacity="1" stop-color="rgb(94.818115%, 41.917419%, 9.008789%)" offset="0.546875"/><stop stop-opacity="1" stop-color="rgb(95.204163%, 42.21344%, 9.243774%)" offset="0.5625"/><stop stop-opacity="1" stop-color="rgb(95.588684%, 42.507935%, 9.47876%)" offset="0.578125"/><stop stop-opacity="1" stop-color="rgb(95.974731%, 42.802429%, 9.712219%)" offset="0.579991"/><stop stop-opacity="1" stop-color="rgb(96.168518%, 42.950439%, 9.829712%)" offset="0.59375"/><stop stop-opacity="1" stop-color="rgb(96.360779%, 43.09845%, 9.947205%)" offset="0.609375"/><stop stop-opacity="1" stop-color="rgb(96.746826%, 43.392944%, 10.18219%)" offset="0.625"/><stop stop-opacity="1" stop-color="rgb(97.132874%, 43.687439%, 10.417175%)" offset="0.640625"/><stop stop-opacity="1" stop-color="rgb(97.518921%, 43.983459%, 10.650635%)" offset="0.65625"/><stop stop-opacity="1" stop-color="rgb(97.904968%, 44.277954%, 10.88562%)" offset="0.671875"/><stop stop-opacity="1" stop-color="rgb(98.291016%, 44.572449%, 11.120605%)" offset="0.6875"/><stop stop-opacity="1" stop-color="rgb(98.677063%, 44.868469%, 11.355591%)" offset="0.703125"/><stop stop-opacity="1" stop-color="rgb(99.061584%, 45.162964%, 11.58905%)" offset="0.71875"/><stop stop-opacity="1" stop-color="rgb(99.447632%, 45.457458%, 11.824036%)" offset="0.734375"/><stop stop-opacity="1" stop-color="rgb(99.819946%, 45.741272%, 12.049866%)" offset="0.75"/><stop stop-opacity="1" stop-color="rgb(100%, 45.878601%, 12.159729%)" offset="1"/></linearGradient><clipPath id="2a6139b47c"><path d="M 89.660156 104.636719 L 174 104.636719 L 174 410 L 89.660156 410 Z M 89.660156 104.636719 " clip-rule="nonzero"/></clipPath><clipPath id="3564be85b9"><path d="M 173 104.636719 L 258 104.636719 L 258 410 L 173 410 Z M 173 104.636719 " clip-rule="nonzero"/></clipPath><clipPath id="12534ab9ac"><path d="M 257 104.636719 L 342 104.636719 L 342 410 L 257 410 Z M 257 104.636719 " clip-rule="nonzero"/></clipPath><clipPath id="be3efceca5"><path d="M 341 104.636719 L 425.132812 104.636719 L 425.132812 410 L 341 410 Z M 341 104.636719 " clip-rule="nonzero"/></clipPath><clipPath id="19694501e2"><rect x="0" width="515" y="0" height="515"/></clipPath></defs><g transform="matrix(1, 0, 0, 1, 5, 5)"><g clip-path="url(#19694501e2)"><g clip-path="url(#979f3f4213)"><g clip-path="url(#51b845c723)"><path fill="url(#964176c352)" d="M 0.625 513.207031 L 513.703125 513.207031 L 513.703125 0.128906 L 0.625 0.128906 Z M 0.625 513.207031 " fill-rule="nonzero"/></g></g><g clip-path="url(#2a6139b47c)"><path fill="#fff6ea" d="M 90.28125 409.328125 L 173.789062 307.667969 L 173.789062 104.636719 L 89.902344 206.769531 Z M 90.28125 409.328125 " fill-opacity="1" fill-rule="nonzero"/></g><g clip-path="url(#3564be85b9)"><path fill="#ffd9c2" d="M 173.789062 104.636719 L 257.460938 206.292969 L 257.460938 409.328125 L 173.789062 307.195312 Z M 173.789062 104.636719 " fill-opacity="1" fill-rule="nonzero"/></g><g clip-path="url(#12534ab9ac)"><path fill="#fff6ea" d="M 257.839844 409.328125 L 341.351562 307.667969 L 341.351562 104.636719 L 257.460938 206.769531 Z M 257.839844 409.328125 " fill-opacity="1" fill-rule="nonzero"/></g><g clip-path="url(#be3efceca5)"><path fill="#ffd9c2" d="M 341.351562 104.636719 L 425.046875 206.292969 L 425.046875 409.328125 L 341.351562 307.195312 Z M 341.351562 104.636719 " fill-opacity="1" fill-rule="nonzero"/></g></g></g></svg>