<svg xmlns="http://www.w3.org/2000/svg" xmlns:xlink="http://www.w3.org/1999/xlink" width="700" zoomAndPan="magnify" viewBox="0 0 525 525.000007" height="700" preserveAspectRatio="xMidYMid meet" version="1.0"><defs><filter x="0%" y="0%" width="100%" height="100%" id="a1e9e1f7a3"><feColorMatrix values="0 0 0 0 1 0 0 0 0 1 0 0 0 0 1 0 0 0 1 0" color-interpolation-filters="sRGB"/></filter><g/><clipPath id="13620270b7"><path d="M 0.5 0 L 524.5 0 L 524.5 524 L 0.5 524 Z M 0.5 0 " clip-rule="nonzero"/></clipPath><clipPath id="e18eeb38f5"><path d="M 0.5 0 L 524.5 0 L 524.5 524 L 0.5 524 Z M 0.5 0 " clip-rule="nonzero"/></clipPath><clipPath id="b1e7441c33"><path d="M 0.5 0 L 524.5 0 L 524.5 524 L 0.5 524 Z M 0.5 0 " clip-rule="nonzero"/></clipPath><linearGradient x1="16.535991" gradientTransform="matrix(0.748659, 0, 0, 0.748433, -20.684081, 23.653909)" y1="656.769039" x2="716.562335" gradientUnits="userSpaceOnUse" y2="-43.257313" id="3052f83be7"><stop stop-opacity="1" stop-color="rgb(27.449036%, 7.058716%, 28.239441%)" offset="0"/><stop stop-opacity="1" stop-color="rgb(27.449036%, 7.058716%, 28.239441%)" offset="0.125"/><stop stop-opacity="1" stop-color="rgb(27.449036%, 7.058716%, 28.239441%)" offset="0.132812"/><stop stop-opacity="1" stop-color="rgb(27.911377%, 7.23114%, 28.234863%)" offset="0.136719"/><stop stop-opacity="1" stop-color="rgb(28.375244%, 7.40509%, 28.230286%)" offset="0.140625"/><stop stop-opacity="1" stop-color="rgb(28.90625%, 7.603455%, 28.224182%)" offset="0.144531"/><stop stop-opacity="1" stop-color="rgb(29.438782%, 7.803345%, 28.218079%)" offset="0.148438"/><stop stop-opacity="1" stop-color="rgb(29.969788%, 8.001709%, 28.211975%)" offset="0.152344"/><stop stop-opacity="1" stop-color="rgb(30.502319%, 8.200073%, 28.207397%)" offset="0.15625"/><stop stop-opacity="1" stop-color="rgb(31.033325%, 8.398438%, 28.201294%)" offset="0.160156"/><stop stop-opacity="1" stop-color="rgb(31.564331%, 8.596802%, 28.196716%)" offset="0.164062"/><stop stop-opacity="1" stop-color="rgb(32.095337%, 8.795166%, 28.190613%)" offset="0.167969"/><stop stop-opacity="1" stop-color="rgb(32.627869%, 8.995056%, 28.186035%)" offset="0.171875"/><stop stop-opacity="1" stop-color="rgb(33.158875%, 9.19342%, 28.179932%)" offset="0.175781"/><stop stop-opacity="1" stop-color="rgb(33.691406%, 9.391785%, 28.175354%)" offset="0.179687"/><stop stop-opacity="1" stop-color="rgb(34.222412%, 9.590149%, 28.16925%)" offset="0.183594"/><stop stop-opacity="1" stop-color="rgb(34.753418%, 9.790039%, 28.164673%)" offset="0.1875"/><stop stop-opacity="1" stop-color="rgb(35.284424%, 9.988403%, 28.158569%)" offset="0.191406"/><stop stop-opacity="1" stop-color="rgb(35.816956%, 10.186768%, 28.152466%)" offset="0.195312"/><stop stop-opacity="1" stop-color="rgb(36.347961%, 10.385132%, 28.146362%)" offset="0.199219"/><stop stop-opacity="1" stop-color="rgb(36.880493%, 10.583496%, 28.141785%)" offset="0.203125"/><stop stop-opacity="1" stop-color="rgb(37.411499%, 10.78186%, 28.135681%)" offset="0.207031"/><stop stop-opacity="1" stop-color="rgb(37.942505%, 10.98175%, 28.131104%)" offset="0.210937"/><stop stop-opacity="1" stop-color="rgb(38.473511%, 11.180115%, 28.125%)" offset="0.214844"/><stop stop-opacity="1" stop-color="rgb(39.006042%, 11.378479%, 28.120422%)" offset="0.21875"/><stop stop-opacity="1" stop-color="rgb(39.537048%, 11.576843%, 28.114319%)" offset="0.222656"/><stop stop-opacity="1" stop-color="rgb(40.06958%, 11.776733%, 28.109741%)" offset="0.226562"/><stop stop-opacity="1" stop-color="rgb(40.600586%, 11.975098%, 28.103638%)" offset="0.230469"/><stop stop-opacity="1" stop-color="rgb(41.131592%, 12.173462%, 28.097534%)" offset="0.234375"/><stop stop-opacity="1" stop-color="rgb(41.662598%, 12.371826%, 28.091431%)" offset="0.238281"/><stop stop-opacity="1" stop-color="rgb(42.195129%, 12.571716%, 28.086853%)" offset="0.242187"/><stop stop-opacity="1" stop-color="rgb(42.726135%, 12.770081%, 28.08075%)" offset="0.246094"/><stop stop-opacity="1" stop-color="rgb(43.258667%, 12.968445%, 28.076172%)" offset="0.25"/><stop stop-opacity="1" stop-color="rgb(43.789673%, 13.166809%, 28.070068%)" offset="0.253906"/><stop stop-opacity="1" stop-color="rgb(44.322205%, 13.365173%, 28.065491%)" offset="0.257812"/><stop stop-opacity="1" stop-color="rgb(44.85321%, 13.563538%, 28.059387%)" offset="0.261719"/><stop stop-opacity="1" stop-color="rgb(45.384216%, 13.763428%, 28.05481%)" offset="0.265625"/><stop stop-opacity="1" stop-color="rgb(45.915222%, 13.961792%, 28.048706%)" offset="0.269531"/><stop stop-opacity="1" stop-color="rgb(46.447754%, 14.160156%, 28.044128%)" offset="0.273437"/><stop stop-opacity="1" stop-color="rgb(46.97876%, 14.358521%, 28.038025%)" offset="0.277344"/><stop stop-opacity="1" stop-color="rgb(47.511292%, 14.558411%, 28.031921%)" offset="0.28125"/><stop stop-opacity="1" stop-color="rgb(48.042297%, 14.756775%, 28.025818%)" offset="0.285156"/><stop stop-opacity="1" stop-color="rgb(48.573303%, 14.955139%, 28.02124%)" offset="0.289062"/><stop stop-opacity="1" stop-color="rgb(49.104309%, 15.153503%, 28.015137%)" offset="0.292969"/><stop stop-opacity="1" stop-color="rgb(49.636841%, 15.351868%, 28.010559%)" offset="0.296875"/><stop stop-opacity="1" stop-color="rgb(50.167847%, 15.550232%, 28.004456%)" offset="0.300781"/><stop stop-opacity="1" stop-color="rgb(50.700378%, 15.750122%, 27.999878%)" offset="0.304687"/><stop stop-opacity="1" stop-color="rgb(51.231384%, 15.948486%, 27.993774%)" offset="0.308594"/><stop stop-opacity="1" stop-color="rgb(51.76239%, 16.146851%, 27.989197%)" offset="0.3125"/><stop stop-opacity="1" stop-color="rgb(52.293396%, 16.345215%, 27.983093%)" offset="0.316406"/><stop stop-opacity="1" stop-color="rgb(52.825928%, 16.545105%, 27.978516%)" offset="0.320312"/><stop stop-opacity="1" stop-color="rgb(53.356934%, 16.743469%, 27.972412%)" offset="0.324219"/><stop stop-opacity="1" stop-color="rgb(53.889465%, 16.941833%, 27.966309%)" offset="0.328125"/><stop stop-opacity="1" stop-color="rgb(54.420471%, 17.140198%, 27.960205%)" offset="0.332031"/><stop stop-opacity="1" stop-color="rgb(54.951477%, 17.338562%, 27.955627%)" offset="0.335937"/><stop stop-opacity="1" stop-color="rgb(55.482483%, 17.536926%, 27.949524%)" offset="0.339844"/><stop stop-opacity="1" stop-color="rgb(56.015015%, 17.736816%, 27.944946%)" offset="0.34375"/><stop stop-opacity="1" stop-color="rgb(56.546021%, 17.935181%, 27.938843%)" offset="0.347656"/><stop stop-opacity="1" stop-color="rgb(57.078552%, 18.133545%, 27.934265%)" offset="0.351562"/><stop stop-opacity="1" stop-color="rgb(57.609558%, 18.331909%, 27.928162%)" offset="0.355469"/><stop stop-opacity="1" stop-color="rgb(58.14209%, 18.531799%, 27.923584%)" offset="0.359375"/><stop stop-opacity="1" stop-color="rgb(58.673096%, 18.730164%, 27.91748%)" offset="0.363281"/><stop stop-opacity="1" stop-color="rgb(59.204102%, 18.928528%, 27.911377%)" offset="0.367187"/><stop stop-opacity="1" stop-color="rgb(59.735107%, 19.126892%, 27.905273%)" offset="0.371094"/><stop stop-opacity="1" stop-color="rgb(60.267639%, 19.325256%, 27.900696%)" offset="0.375"/><stop stop-opacity="1" stop-color="rgb(60.798645%, 19.523621%, 27.894592%)" offset="0.378906"/><stop stop-opacity="1" stop-color="rgb(61.331177%, 19.723511%, 27.890015%)" offset="0.382812"/><stop stop-opacity="1" stop-color="rgb(61.862183%, 19.921875%, 27.883911%)" offset="0.386719"/><stop stop-opacity="1" stop-color="rgb(62.393188%, 20.120239%, 27.879333%)" offset="0.390625"/><stop stop-opacity="1" stop-color="rgb(62.924194%, 20.318604%, 27.87323%)" offset="0.394531"/><stop stop-opacity="1" stop-color="rgb(63.456726%, 20.518494%, 27.868652%)" offset="0.398437"/><stop stop-opacity="1" stop-color="rgb(63.987732%, 20.716858%, 27.862549%)" offset="0.402344"/><stop stop-opacity="1" stop-color="rgb(64.520264%, 20.915222%, 27.857971%)" offset="0.40625"/><stop stop-opacity="1" stop-color="rgb(65.05127%, 21.113586%, 27.851868%)" offset="0.410156"/><stop stop-opacity="1" stop-color="rgb(65.582275%, 21.311951%, 27.845764%)" offset="0.414062"/><stop stop-opacity="1" stop-color="rgb(66.099548%, 21.691895%, 27.89917%)" offset="0.417969"/><stop stop-opacity="1" stop-color="rgb(66.616821%, 22.073364%, 27.954102%)" offset="0.421875"/><stop stop-opacity="1" stop-color="rgb(67.106628%, 22.784424%, 28.114319%)" offset="0.425781"/><stop stop-opacity="1" stop-color="rgb(67.596436%, 23.497009%, 28.276062%)" offset="0.429688"/><stop stop-opacity="1" stop-color="rgb(68.086243%, 24.208069%, 28.436279%)" offset="0.433594"/><stop stop-opacity="1" stop-color="rgb(68.57605%, 24.919128%, 28.598022%)" offset="0.4375"/><stop stop-opacity="1" stop-color="rgb(69.065857%, 25.630188%, 28.75824%)" offset="0.441406"/><stop stop-opacity="1" stop-color="rgb(69.55719%, 26.342773%, 28.919983%)" offset="0.445312"/><stop stop-opacity="1" stop-color="rgb(70.046997%, 27.053833%, 29.0802%)" offset="0.449219"/><stop stop-opacity="1" stop-color="rgb(70.536804%, 27.764893%, 29.241943%)" offset="0.453125"/><stop stop-opacity="1" stop-color="rgb(71.026611%, 28.475952%, 29.402161%)" offset="0.457031"/><stop stop-opacity="1" stop-color="rgb(71.516418%, 29.188538%, 29.563904%)" offset="0.460938"/><stop stop-opacity="1" stop-color="rgb(72.006226%, 29.899597%, 29.724121%)" offset="0.464844"/><stop stop-opacity="1" stop-color="rgb(72.496033%, 30.610657%, 29.885864%)" offset="0.46875"/><stop stop-opacity="1" stop-color="rgb(72.98584%, 31.321716%, 30.046082%)" offset="0.472656"/><stop stop-opacity="1" stop-color="rgb(73.477173%, 32.034302%, 30.207825%)" offset="0.476562"/><stop stop-opacity="1" stop-color="rgb(73.96698%, 32.745361%, 30.368042%)" offset="0.480469"/><stop stop-opacity="1" stop-color="rgb(74.456787%, 33.457947%, 30.529785%)" offset="0.484375"/><stop stop-opacity="1" stop-color="rgb(74.946594%, 34.169006%, 30.690002%)" offset="0.488281"/><stop stop-opacity="1" stop-color="rgb(75.436401%, 34.880066%, 30.851746%)" offset="0.492187"/><stop stop-opacity="1" stop-color="rgb(75.926208%, 35.591125%, 31.013489%)" offset="0.496094"/><stop stop-opacity="1" stop-color="rgb(76.417542%, 36.303711%, 31.175232%)" offset="0.5"/><stop stop-opacity="1" stop-color="rgb(76.907349%, 37.014771%, 31.335449%)" offset="0.503906"/><stop stop-opacity="1" stop-color="rgb(77.397156%, 37.72583%, 31.497192%)" offset="0.507812"/><stop stop-opacity="1" stop-color="rgb(77.886963%, 38.43689%, 31.65741%)" offset="0.511719"/><stop stop-opacity="1" stop-color="rgb(78.37677%, 39.149475%, 31.819153%)" offset="0.515625"/><stop stop-opacity="1" stop-color="rgb(78.866577%, 39.860535%, 31.97937%)" offset="0.519531"/><stop stop-opacity="1" stop-color="rgb(79.356384%, 40.571594%, 32.141113%)" offset="0.523437"/><stop stop-opacity="1" stop-color="rgb(79.846191%, 41.282654%, 32.301331%)" offset="0.527344"/><stop stop-opacity="1" stop-color="rgb(80.337524%, 41.995239%, 32.463074%)" offset="0.53125"/><stop stop-opacity="1" stop-color="rgb(80.827332%, 42.706299%, 32.623291%)" offset="0.535156"/><stop stop-opacity="1" stop-color="rgb(81.317139%, 43.418884%, 32.785034%)" offset="0.539062"/><stop stop-opacity="1" stop-color="rgb(81.806946%, 44.129944%, 32.945251%)" offset="0.542969"/><stop stop-opacity="1" stop-color="rgb(82.296753%, 44.841003%, 33.106995%)" offset="0.546875"/><stop stop-opacity="1" stop-color="rgb(82.78656%, 45.552063%, 33.267212%)" offset="0.550781"/><stop stop-opacity="1" stop-color="rgb(83.276367%, 46.264648%, 33.428955%)" offset="0.554687"/><stop stop-opacity="1" stop-color="rgb(83.766174%, 46.975708%, 33.589172%)" offset="0.558594"/><stop stop-opacity="1" stop-color="rgb(84.257507%, 47.686768%, 33.750916%)" offset="0.5625"/><stop stop-opacity="1" stop-color="rgb(84.747314%, 48.397827%, 33.911133%)" offset="0.566406"/><stop stop-opacity="1" stop-color="rgb(85.237122%, 49.110413%, 34.072876%)" offset="0.570312"/><stop stop-opacity="1" stop-color="rgb(85.726929%, 49.821472%, 34.234619%)" offset="0.574219"/><stop stop-opacity="1" stop-color="rgb(86.216736%, 50.532532%, 34.396362%)" offset="0.578125"/><stop stop-opacity="1" stop-color="rgb(86.706543%, 51.243591%, 34.55658%)" offset="0.582031"/><stop stop-opacity="1" stop-color="rgb(87.197876%, 51.956177%, 34.718323%)" offset="0.585938"/><stop stop-opacity="1" stop-color="rgb(87.687683%, 52.667236%, 34.87854%)" offset="0.589844"/><stop stop-opacity="1" stop-color="rgb(88.17749%, 53.378296%, 35.040283%)" offset="0.59375"/><stop stop-opacity="1" stop-color="rgb(88.667297%, 54.089355%, 35.2005%)" offset="0.597656"/><stop stop-opacity="1" stop-color="rgb(89.157104%, 54.801941%, 35.362244%)" offset="0.601562"/><stop stop-opacity="1" stop-color="rgb(89.646912%, 55.513%, 35.522461%)" offset="0.605469"/><stop stop-opacity="1" stop-color="rgb(90.136719%, 56.225586%, 35.684204%)" offset="0.609375"/><stop stop-opacity="1" stop-color="rgb(90.626526%, 56.936646%, 35.844421%)" offset="0.613281"/><stop stop-opacity="1" stop-color="rgb(91.117859%, 57.647705%, 36.006165%)" offset="0.617187"/><stop stop-opacity="1" stop-color="rgb(91.607666%, 58.358765%, 36.166382%)" offset="0.621094"/><stop stop-opacity="1" stop-color="rgb(92.097473%, 59.07135%, 36.328125%)" offset="0.625"/><stop stop-opacity="1" stop-color="rgb(92.58728%, 59.78241%, 36.488342%)" offset="0.628906"/><stop stop-opacity="1" stop-color="rgb(93.077087%, 60.493469%, 36.650085%)" offset="0.632812"/><stop stop-opacity="1" stop-color="rgb(93.566895%, 61.204529%, 36.810303%)" offset="0.636719"/><stop stop-opacity="1" stop-color="rgb(94.056702%, 61.917114%, 36.972046%)" offset="0.640625"/><stop stop-opacity="1" stop-color="rgb(94.487%, 62.567139%, 37.176514%)" offset="0.644531"/><stop stop-opacity="1" stop-color="rgb(94.918823%, 63.218689%, 37.380981%)" offset="0.648437"/><stop stop-opacity="1" stop-color="rgb(94.989014%, 63.502502%, 37.8479%)" offset="0.652344"/><stop stop-opacity="1" stop-color="rgb(95.059204%, 63.787842%, 38.314819%)" offset="0.65625"/><stop stop-opacity="1" stop-color="rgb(95.127869%, 64.071655%, 38.781738%)" offset="0.660156"/><stop stop-opacity="1" stop-color="rgb(95.198059%, 64.356995%, 39.250183%)" offset="0.664062"/><stop stop-opacity="1" stop-color="rgb(95.26825%, 64.640808%, 39.717102%)" offset="0.667969"/><stop stop-opacity="1" stop-color="rgb(95.33844%, 64.926147%, 40.184021%)" offset="0.671875"/><stop stop-opacity="1" stop-color="rgb(95.407104%, 65.209961%, 40.65094%)" offset="0.675781"/><stop stop-opacity="1" stop-color="rgb(95.477295%, 65.4953%, 41.117859%)" offset="0.679688"/><stop stop-opacity="1" stop-color="rgb(95.547485%, 65.779114%, 41.584778%)" offset="0.683594"/><stop stop-opacity="1" stop-color="rgb(95.617676%, 66.064453%, 42.053223%)" offset="0.6875"/><stop stop-opacity="1" stop-color="rgb(95.68634%, 66.348267%, 42.520142%)" offset="0.691406"/><stop stop-opacity="1" stop-color="rgb(95.756531%, 66.633606%, 42.987061%)" offset="0.695312"/><stop stop-opacity="1" stop-color="rgb(95.826721%, 66.917419%, 43.453979%)" offset="0.699219"/><stop stop-opacity="1" stop-color="rgb(95.896912%, 67.202759%, 43.920898%)" offset="0.703125"/><stop stop-opacity="1" stop-color="rgb(95.965576%, 67.486572%, 44.387817%)" offset="0.707031"/><stop stop-opacity="1" stop-color="rgb(96.035767%, 67.771912%, 44.856262%)" offset="0.710938"/><stop stop-opacity="1" stop-color="rgb(96.105957%, 68.055725%, 45.323181%)" offset="0.714844"/><stop stop-opacity="1" stop-color="rgb(96.176147%, 68.341064%, 45.7901%)" offset="0.71875"/><stop stop-opacity="1" stop-color="rgb(96.244812%, 68.624878%, 46.257019%)" offset="0.722656"/><stop stop-opacity="1" stop-color="rgb(96.315002%, 68.910217%, 46.723938%)" offset="0.726562"/><stop stop-opacity="1" stop-color="rgb(96.385193%, 69.194031%, 47.190857%)" offset="0.730469"/><stop stop-opacity="1" stop-color="rgb(96.455383%, 69.47937%, 47.659302%)" offset="0.734375"/><stop stop-opacity="1" stop-color="rgb(96.524048%, 69.763184%, 48.126221%)" offset="0.738281"/><stop stop-opacity="1" stop-color="rgb(96.594238%, 70.048523%, 48.59314%)" offset="0.742187"/><stop stop-opacity="1" stop-color="rgb(96.664429%, 70.332336%, 49.060059%)" offset="0.746094"/><stop stop-opacity="1" stop-color="rgb(96.734619%, 70.617676%, 49.526978%)" offset="0.75"/><stop stop-opacity="1" stop-color="rgb(96.803284%, 70.901489%, 49.993896%)" offset="0.753906"/><stop stop-opacity="1" stop-color="rgb(96.873474%, 71.186829%, 50.462341%)" offset="0.757812"/><stop stop-opacity="1" stop-color="rgb(96.943665%, 71.470642%, 50.92926%)" offset="0.761719"/><stop stop-opacity="1" stop-color="rgb(97.013855%, 71.754456%, 51.396179%)" offset="0.765625"/><stop stop-opacity="1" stop-color="rgb(97.084045%, 72.038269%, 51.863098%)" offset="0.769531"/><stop stop-opacity="1" stop-color="rgb(97.154236%, 72.323608%, 52.330017%)" offset="0.773438"/><stop stop-opacity="1" stop-color="rgb(97.2229%, 72.607422%, 52.796936%)" offset="0.777344"/><stop stop-opacity="1" stop-color="rgb(97.293091%, 72.892761%, 53.265381%)" offset="0.78125"/><stop stop-opacity="1" stop-color="rgb(97.363281%, 73.176575%, 53.7323%)" offset="0.785156"/><stop stop-opacity="1" stop-color="rgb(97.433472%, 73.461914%, 54.199219%)" offset="0.789062"/><stop stop-opacity="1" stop-color="rgb(97.502136%, 73.745728%, 54.666138%)" offset="0.792969"/><stop stop-opacity="1" stop-color="rgb(97.572327%, 74.031067%, 55.133057%)" offset="0.796875"/><stop stop-opacity="1" stop-color="rgb(97.642517%, 74.31488%, 55.599976%)" offset="0.800781"/><stop stop-opacity="1" stop-color="rgb(97.712708%, 74.60022%, 56.06842%)" offset="0.804688"/><stop stop-opacity="1" stop-color="rgb(97.781372%, 74.884033%, 56.535339%)" offset="0.808594"/><stop stop-opacity="1" stop-color="rgb(97.851562%, 75.169373%, 57.002258%)" offset="0.8125"/><stop stop-opacity="1" stop-color="rgb(97.921753%, 75.453186%, 57.469177%)" offset="0.816406"/><stop stop-opacity="1" stop-color="rgb(97.991943%, 75.738525%, 57.937622%)" offset="0.820312"/><stop stop-opacity="1" stop-color="rgb(98.060608%, 76.022339%, 58.404541%)" offset="0.824219"/><stop stop-opacity="1" stop-color="rgb(98.130798%, 76.307678%, 58.87146%)" offset="0.828125"/><stop stop-opacity="1" stop-color="rgb(98.200989%, 76.591492%, 59.338379%)" offset="0.832031"/><stop stop-opacity="1" stop-color="rgb(98.271179%, 76.876831%, 59.805298%)" offset="0.835938"/><stop stop-opacity="1" stop-color="rgb(98.339844%, 77.160645%, 60.272217%)" offset="0.839844"/><stop stop-opacity="1" stop-color="rgb(98.410034%, 77.445984%, 60.740662%)" offset="0.84375"/><stop stop-opacity="1" stop-color="rgb(98.480225%, 77.729797%, 61.207581%)" offset="0.847656"/><stop stop-opacity="1" stop-color="rgb(98.550415%, 78.015137%, 61.6745%)" offset="0.851562"/><stop stop-opacity="1" stop-color="rgb(98.61908%, 78.29895%, 62.141418%)" offset="0.855469"/><stop stop-opacity="1" stop-color="rgb(98.68927%, 78.58429%, 62.608337%)" offset="0.859375"/><stop stop-opacity="1" stop-color="rgb(98.75946%, 78.868103%, 63.075256%)" offset="0.863281"/><stop stop-opacity="1" stop-color="rgb(98.829651%, 79.153442%, 63.543701%)" offset="0.867187"/><stop stop-opacity="1" stop-color="rgb(98.898315%, 79.437256%, 64.01062%)" offset="0.871094"/><stop stop-opacity="1" stop-color="rgb(98.968506%, 79.722595%, 64.477539%)" offset="0.875"/><stop stop-opacity="1" stop-color="rgb(99.038696%, 80.006409%, 64.944458%)" offset="0.878906"/><stop stop-opacity="1" stop-color="rgb(99.108887%, 80.291748%, 65.411377%)" offset="0.882813"/><stop stop-opacity="1" stop-color="rgb(99.177551%, 80.575562%, 65.878296%)" offset="0.886719"/><stop stop-opacity="1" stop-color="rgb(99.247742%, 80.859375%, 66.346741%)" offset="0.890625"/><stop stop-opacity="1" stop-color="rgb(99.317932%, 81.143188%, 66.81366%)" offset="0.894531"/><stop stop-opacity="1" stop-color="rgb(99.388123%, 81.428528%, 67.280579%)" offset="0.898438"/><stop stop-opacity="1" stop-color="rgb(99.458313%, 81.712341%, 67.747498%)" offset="0.902344"/><stop stop-opacity="1" stop-color="rgb(99.528503%, 81.997681%, 68.214417%)" offset="0.90625"/><stop stop-opacity="1" stop-color="rgb(99.597168%, 82.281494%, 68.681335%)" offset="0.910156"/><stop stop-opacity="1" stop-color="rgb(99.667358%, 82.566833%, 69.14978%)" offset="0.914062"/><stop stop-opacity="1" stop-color="rgb(99.737549%, 82.850647%, 69.616699%)" offset="0.917969"/><stop stop-opacity="1" stop-color="rgb(99.807739%, 83.135986%, 70.083618%)" offset="0.921875"/><stop stop-opacity="1" stop-color="rgb(99.876404%, 83.4198%, 70.550537%)" offset="0.925781"/><stop stop-opacity="1" stop-color="rgb(99.946594%, 83.705139%, 71.017456%)" offset="0.929688"/><stop stop-opacity="1" stop-color="rgb(99.972534%, 83.811951%, 71.192932%)" offset="0.9375"/><stop stop-opacity="1" stop-color="rgb(100%, 83.918762%, 71.369934%)" offset="1"/></linearGradient><clipPath id="2e930a2dce"><rect x="0" width="525" y="0" height="524"/></clipPath><clipPath id="a7cc5ab018"><path d="M 0.5 0 L 524.5 0 L 524.5 524 L 0.5 524 Z M 0.5 0 " clip-rule="nonzero"/></clipPath><clipPath id="ac7f867f21"><rect x="0" width="525" y="0" height="524"/></clipPath><clipPath id="f99db25230"><rect x="0" width="525" y="0" height="524"/></clipPath><mask id="5c072c5db2"><g filter="url(#a1e9e1f7a3)"><g transform="matrix(1, 0, 0, 1, 0.000000000000000056, 0.000000000000109615)"><g clip-path="url(#f99db25230)"><g clip-path="url(#a7cc5ab018)"><g transform="matrix(1, 0, 0, 1, 0.000000000000000056, 0.000000000000109615)"><g clip-path="url(#ac7f867f21)"><g fill="#000000" fill-opacity="1"><g transform="translate(22.222824, 375.432627)"><g><path d="M -3.484375 -268.65625 C -3.484375 -277.03125 -0.34375 -284.359375 5.9375 -290.640625 C 12.21875 -296.921875 19.539062 -300.0625 27.90625 -300.0625 L 101.1875 -300.0625 C 108.164062 -300.0625 114.910156 -297.269531 121.421875 -291.6875 C 127.472656 -294.019531 133.632812 -296 139.90625 -297.625 C 146.1875 -299.25 152.816406 -300.0625 159.796875 -300.0625 L 185.625 -300.0625 C 194.457031 -300.0625 203.410156 -298.78125 212.484375 -296.21875 C 221.554688 -293.664062 229.816406 -290.53125 237.265625 -286.8125 C 252.148438 -295.644531 269.363281 -300.0625 288.90625 -300.0625 L 346.125 -300.0625 C 365.195312 -300.0625 382.640625 -295.523438 398.453125 -286.453125 C 414.273438 -277.378906 426.835938 -265.398438 436.140625 -250.515625 L 454.984375 -232.375 C 464.753906 -222.601562 472.429688 -211.320312 478.015625 -198.53125 C 483.597656 -185.738281 486.390625 -171.898438 486.390625 -157.015625 L 486.390625 24.421875 C 486.390625 31.867188 483.476562 38.613281 477.65625 44.65625 C 471.84375 50.707031 464.984375 53.734375 457.078125 53.734375 L 383.8125 53.734375 C 376.363281 53.734375 369.613281 50.707031 363.5625 44.65625 L 337.046875 18.84375 C 331.929688 16.519531 328.210938 13.726562 325.890625 10.46875 L 325.890625 24.421875 C 325.890625 31.867188 322.976562 38.613281 317.15625 44.65625 C 311.34375 50.707031 304.484375 53.734375 296.578125 53.734375 L 223.3125 53.734375 C 215.863281 53.734375 209.113281 50.707031 203.0625 44.65625 L 176.546875 18.84375 C 171.429688 16.519531 167.710938 13.726562 165.390625 10.46875 L 165.390625 24.421875 C 165.390625 31.867188 162.476562 38.613281 156.65625 44.65625 C 150.84375 50.707031 143.984375 53.734375 136.078125 53.734375 L 62.796875 53.734375 C 55.359375 53.734375 48.613281 50.707031 42.5625 44.65625 L 16.046875 18.140625 C 10.460938 15.816406 5.8125 11.976562 2.09375 6.625 C -1.625 1.28125 -3.484375 -4.414062 -3.484375 -10.46875 Z M -3.484375 -268.65625 "/></g></g></g></g></g></g></g></g></g></mask><clipPath id="311c34373d"><path d="M 0.5 0 L 524.5 0 L 524.5 524 L 0.5 524 Z M 0.5 0 " clip-rule="nonzero"/></clipPath><clipPath id="08cd850d61"><rect x="0" width="525" y="0" height="524"/></clipPath><clipPath id="f236bc2679"><rect x="0" width="525" y="0" height="524"/></clipPath><clipPath id="dd4cfa85a0"><rect x="0" width="412" y="0" height="157"/></clipPath></defs><g clip-path="url(#13620270b7)"><g transform="matrix(1, 0, 0, 1, 0.000000000000000056, 0.000000000000109615)"><g clip-path="url(#f236bc2679)"><g clip-path="url(#e18eeb38f5)"><g mask="url(#5c072c5db2)"><g transform="matrix(1, 0, 0, 1, 0.000000000000000056, 0.000000000000109615)"><g clip-path="url(#08cd850d61)"><g clip-path="url(#311c34373d)"><path fill="url(#3052f83be7)" d="M 0.5 0 L 0.5 524 L 524.5 524 L 524.5 0 Z M 0.5 0 " fill-rule="nonzero"/></g></g></g></g></g></g></g></g><g transform="matrix(1, 0, 0, 1, 29, 72)"><g clip-path="url(#dd4cfa85a0)"><g fill="#e4e2dd" fill-opacity="1"><g transform="translate(0.690843, 124.383916)"><g><path d="M 8.703125 0 L 8.703125 -66.015625 L 27.71875 -66.015625 L 28.34375 -54.078125 L 25.609375 -53.828125 C 26.515625 -55.984375 27.753906 -57.890625 29.328125 -59.546875 C 30.910156 -61.203125 32.675781 -62.585938 34.625 -63.703125 C 36.570312 -64.828125 38.617188 -65.695312 40.765625 -66.3125 C 42.921875 -66.9375 45.078125 -67.25 47.234375 -67.25 C 50.554688 -67.25 53.519531 -66.75 56.125 -65.75 C 58.738281 -64.757812 61.019531 -63.144531 62.96875 -60.90625 C 64.914062 -58.675781 66.46875 -55.695312 67.625 -51.96875 L 64.640625 -52.453125 L 65.515625 -54.203125 C 66.671875 -56.191406 68.097656 -57.992188 69.796875 -59.609375 C 71.492188 -61.222656 73.378906 -62.609375 75.453125 -63.765625 C 77.523438 -64.929688 79.660156 -65.800781 81.859375 -66.375 C 84.054688 -66.957031 86.191406 -67.25 88.265625 -67.25 C 93.484375 -67.25 97.832031 -66.210938 101.3125 -64.140625 C 104.789062 -62.066406 107.398438 -59.019531 109.140625 -55 C 110.878906 -50.988281 111.75 -46.039062 111.75 -40.15625 L 111.75 0 L 91.75 0 L 91.75 -38.65625 C 91.75 -42.550781 90.9375 -45.472656 89.3125 -47.421875 C 87.695312 -49.367188 85.273438 -50.34375 82.046875 -50.34375 C 80.304688 -50.34375 78.707031 -50.070312 77.25 -49.53125 C 75.800781 -49 74.5625 -48.210938 73.53125 -47.171875 C 72.5 -46.140625 71.691406 -44.957031 71.109375 -43.625 C 70.523438 -42.300781 70.234375 -40.8125 70.234375 -39.15625 L 70.234375 0 L 50.21875 0 L 50.21875 -38.78125 C 50.21875 -42.507812 49.367188 -45.367188 47.671875 -47.359375 C 45.972656 -49.347656 43.59375 -50.34375 40.53125 -50.34375 C 38.875 -50.34375 37.316406 -50.070312 35.859375 -49.53125 C 34.410156 -49 33.164062 -48.210938 32.125 -47.171875 C 31.09375 -46.140625 30.285156 -44.957031 29.703125 -43.625 C 29.128906 -42.300781 28.84375 -40.8125 28.84375 -39.15625 L 28.84375 0 Z M 8.703125 0 "/></g></g></g><g fill="#e4e2dd" fill-opacity="1"><g transform="translate(120.252566, 124.383916)"><g><path d="M 44 0 L 44 -40.53125 C 44 -43.925781 43.066406 -46.429688 41.203125 -48.046875 C 39.335938 -49.660156 36.75 -50.46875 33.4375 -50.46875 C 30.207031 -50.46875 27.328125 -49.863281 24.796875 -48.65625 C 22.273438 -47.457031 19.851562 -45.492188 17.53125 -42.765625 L 5.59375 -54.328125 C 9.570312 -58.390625 14.128906 -61.578125 19.265625 -63.890625 C 24.398438 -66.210938 29.992188 -67.375 36.046875 -67.375 C 41.597656 -67.375 46.40625 -66.546875 50.46875 -64.890625 C 54.53125 -63.234375 57.679688 -60.707031 59.921875 -57.3125 C 62.160156 -53.914062 63.28125 -49.601562 63.28125 -44.375 L 63.28125 0 Z M 26.84375 1.25 C 22.707031 1.25 18.957031 0.421875 15.59375 -1.234375 C 12.238281 -2.898438 9.585938 -5.203125 7.640625 -8.140625 C 5.691406 -11.085938 4.71875 -14.546875 4.71875 -18.515625 C 4.71875 -21.921875 5.335938 -24.90625 6.578125 -27.46875 C 7.828125 -30.039062 9.671875 -32.175781 12.109375 -33.875 C 14.554688 -35.570312 17.625 -36.851562 21.3125 -37.71875 C 25 -38.59375 29.289062 -39.03125 34.1875 -39.03125 L 54.203125 -39.03125 L 53.078125 -26.484375 L 34.6875 -26.484375 C 32.945312 -26.484375 31.410156 -26.335938 30.078125 -26.046875 C 28.753906 -25.753906 27.632812 -25.296875 26.71875 -24.671875 C 25.8125 -24.054688 25.128906 -23.332031 24.671875 -22.5 C 24.222656 -21.664062 24 -20.671875 24 -19.515625 C 24 -18.273438 24.328125 -17.195312 24.984375 -16.28125 C 25.648438 -15.375 26.539062 -14.671875 27.65625 -14.171875 C 28.78125 -13.671875 30.085938 -13.421875 31.578125 -13.421875 C 33.734375 -13.421875 35.785156 -13.769531 37.734375 -14.46875 C 39.679688 -15.175781 41.421875 -16.191406 42.953125 -17.515625 C 44.484375 -18.847656 45.703125 -20.382812 46.609375 -22.125 L 50.09375 -13.171875 C 48.351562 -10.359375 46.257812 -7.875 43.8125 -5.71875 C 41.375 -3.5625 38.722656 -1.859375 35.859375 -0.609375 C 33.003906 0.628906 30 1.25 26.84375 1.25 Z M 26.84375 1.25 "/></g></g></g><g fill="#e4e2dd" fill-opacity="1"><g transform="translate(190.597632, 124.383916)"><g><path d="M 8.828125 27.34375 L 8.828125 -66.015625 L 27.84375 -66.015625 L 28.71875 -51.46875 L 24.859375 -52.578125 C 25.359375 -55.234375 26.75 -57.660156 29.03125 -59.859375 C 31.3125 -62.054688 34.148438 -63.835938 37.546875 -65.203125 C 40.941406 -66.566406 44.546875 -67.25 48.359375 -67.25 C 53.992188 -67.25 59.003906 -65.796875 63.390625 -62.890625 C 67.785156 -59.992188 71.25 -55.957031 73.78125 -50.78125 C 76.3125 -45.601562 77.578125 -39.65625 77.578125 -32.9375 C 77.578125 -26.394531 76.3125 -20.550781 73.78125 -15.40625 C 71.25 -10.269531 67.765625 -6.226562 63.328125 -3.28125 C 58.898438 -0.34375 53.867188 1.125 48.234375 1.125 C 44.421875 1.125 40.816406 0.398438 37.421875 -1.046875 C 34.023438 -2.503906 31.164062 -4.390625 28.84375 -6.703125 C 26.519531 -9.023438 25.023438 -11.554688 24.359375 -14.296875 L 28.96875 -16.15625 L 28.96875 27.34375 Z M 43.390625 -15.78125 C 46.367188 -15.78125 48.957031 -16.484375 51.15625 -17.890625 C 53.351562 -19.304688 55.050781 -21.316406 56.25 -23.921875 C 57.445312 -26.535156 58.046875 -29.539062 58.046875 -32.9375 C 58.046875 -36.414062 57.445312 -39.460938 56.25 -42.078125 C 55.050781 -44.691406 53.351562 -46.722656 51.15625 -48.171875 C 48.957031 -49.617188 46.367188 -50.34375 43.390625 -50.34375 C 40.316406 -50.34375 37.660156 -49.617188 35.421875 -48.171875 C 33.191406 -46.722656 31.453125 -44.710938 30.203125 -42.140625 C 28.960938 -39.566406 28.34375 -36.5 28.34375 -32.9375 C 28.34375 -29.539062 28.960938 -26.535156 30.203125 -23.921875 C 31.453125 -21.316406 33.191406 -19.304688 35.421875 -17.890625 C 37.660156 -16.484375 40.316406 -15.78125 43.390625 -15.78125 Z M 43.390625 -15.78125 "/></g></g></g><g fill="#e4e2dd" fill-opacity="1"><g transform="translate(272.376879, 124.383916)"><g><path d="M 8.828125 27.34375 L 8.828125 -66.015625 L 27.84375 -66.015625 L 28.71875 -51.46875 L 24.859375 -52.578125 C 25.359375 -55.234375 26.75 -57.660156 29.03125 -59.859375 C 31.3125 -62.054688 34.148438 -63.835938 37.546875 -65.203125 C 40.941406 -66.566406 44.546875 -67.25 48.359375 -67.25 C 53.992188 -67.25 59.003906 -65.796875 63.390625 -62.890625 C 67.785156 -59.992188 71.25 -55.957031 73.78125 -50.78125 C 76.3125 -45.601562 77.578125 -39.65625 77.578125 -32.9375 C 77.578125 -26.394531 76.3125 -20.550781 73.78125 -15.40625 C 71.25 -10.269531 67.765625 -6.226562 63.328125 -3.28125 C 58.898438 -0.34375 53.867188 1.125 48.234375 1.125 C 44.421875 1.125 40.816406 0.398438 37.421875 -1.046875 C 34.023438 -2.503906 31.164062 -4.390625 28.84375 -6.703125 C 26.519531 -9.023438 25.023438 -11.554688 24.359375 -14.296875 L 28.96875 -16.15625 L 28.96875 27.34375 Z M 43.390625 -15.78125 C 46.367188 -15.78125 48.957031 -16.484375 51.15625 -17.890625 C 53.351562 -19.304688 55.050781 -21.316406 56.25 -23.921875 C 57.445312 -26.535156 58.046875 -29.539062 58.046875 -32.9375 C 58.046875 -36.414062 57.445312 -39.460938 56.25 -42.078125 C 55.050781 -44.691406 53.351562 -46.722656 51.15625 -48.171875 C 48.957031 -49.617188 46.367188 -50.34375 43.390625 -50.34375 C 40.316406 -50.34375 37.660156 -49.617188 35.421875 -48.171875 C 33.191406 -46.722656 31.453125 -44.710938 30.203125 -42.140625 C 28.960938 -39.566406 28.34375 -36.5 28.34375 -32.9375 C 28.34375 -29.539062 28.960938 -26.535156 30.203125 -23.921875 C 31.453125 -21.316406 33.191406 -19.304688 35.421875 -17.890625 C 37.660156 -16.484375 40.316406 -15.78125 43.390625 -15.78125 Z M 43.390625 -15.78125 "/></g></g></g><g fill="#e4e2dd" fill-opacity="1"><g transform="translate(354.156126, 124.383916)"><g><path d="M 8.828125 0 L 8.828125 -66.015625 L 27.84375 -66.015625 L 28.71875 -44.5 L 24.984375 -48.734375 C 26.066406 -52.210938 27.722656 -55.359375 29.953125 -58.171875 C 32.191406 -60.992188 34.863281 -63.234375 37.96875 -64.890625 C 41.082031 -66.546875 44.335938 -67.375 47.734375 -67.375 C 49.222656 -67.375 50.609375 -67.269531 51.890625 -67.0625 C 53.179688 -66.851562 54.320312 -66.546875 55.3125 -66.140625 L 49.96875 -44.125 C 49.0625 -44.625 47.835938 -45.0625 46.296875 -45.4375 C 44.765625 -45.8125 43.171875 -46 41.515625 -46 C 39.691406 -46 38.015625 -45.6875 36.484375 -45.0625 C 34.953125 -44.4375 33.625 -43.546875 32.5 -42.390625 C 31.382812 -41.234375 30.515625 -39.863281 29.890625 -38.28125 C 29.273438 -36.707031 28.96875 -34.925781 28.96875 -32.9375 L 28.96875 0 Z M 8.828125 0 "/></g></g></g></g></g></svg>